<mxfile host="app.diagrams.net" modified="2023-11-10T14:59:28.941Z" agent="Mozilla/5.0 (Windows NT 10.0; Win64; x64) AppleWebKit/537.36 (KHTML, like Gecko) Chrome/119.0.0.0 Safari/537.36 Edg/119.0.0.0" etag="iIqUKpKwKzAY2NRLQKBE" version="22.1.0" type="device">
  <diagram name="Page-1" id="5Vx0abH-B_5f4iCs7XIk">
    <mxGraphModel dx="1189" dy="645" grid="1" gridSize="10" guides="1" tooltips="1" connect="1" arrows="1" fold="1" page="1" pageScale="1" pageWidth="1200" pageHeight="1920" math="0" shadow="0">
      <root>
        <mxCell id="0" />
        <mxCell id="1" parent="0" />
        <mxCell id="KtNkentMnjNg2-EnF80v-224" value="ADMIN" style="whiteSpace=wrap;html=1;align=center;" parent="1" vertex="1">
          <mxGeometry x="580" y="120" width="100" height="40" as="geometry" />
        </mxCell>
        <mxCell id="KtNkentMnjNg2-EnF80v-226" value="TRANSACTION" style="whiteSpace=wrap;html=1;align=center;" parent="1" vertex="1">
          <mxGeometry x="580" y="310" width="100" height="40" as="geometry" />
        </mxCell>
        <mxCell id="KtNkentMnjNg2-EnF80v-227" value="ACCOUNT" style="whiteSpace=wrap;html=1;align=center;" parent="1" vertex="1">
          <mxGeometry x="590" y="530" width="100" height="40" as="geometry" />
        </mxCell>
        <mxCell id="KtNkentMnjNg2-EnF80v-228" value="USER" style="whiteSpace=wrap;html=1;align=center;" parent="1" vertex="1">
          <mxGeometry x="230" y="530" width="100" height="40" as="geometry" />
        </mxCell>
        <mxCell id="KtNkentMnjNg2-EnF80v-229" value="HAVE" style="shape=rhombus;perimeter=rhombusPerimeter;whiteSpace=wrap;html=1;align=center;" parent="1" vertex="1">
          <mxGeometry x="390" y="520" width="120" height="60" as="geometry" />
        </mxCell>
        <mxCell id="KtNkentMnjNg2-EnF80v-230" value="DO" style="shape=rhombus;perimeter=rhombusPerimeter;whiteSpace=wrap;html=1;align=center;" parent="1" vertex="1">
          <mxGeometry x="580" y="390" width="120" height="60" as="geometry" />
        </mxCell>
        <mxCell id="KtNkentMnjNg2-EnF80v-231" value="OPERATING" style="shape=rhombus;perimeter=rhombusPerimeter;whiteSpace=wrap;html=1;align=center;" parent="1" vertex="1">
          <mxGeometry x="570" y="210" width="120" height="60" as="geometry" />
        </mxCell>
        <mxCell id="KtNkentMnjNg2-EnF80v-232" value="" style="endArrow=none;html=1;rounded=0;exitX=1;exitY=0.5;exitDx=0;exitDy=0;" parent="1" source="KtNkentMnjNg2-EnF80v-229" target="KtNkentMnjNg2-EnF80v-227" edge="1">
          <mxGeometry relative="1" as="geometry">
            <mxPoint x="540" y="530" as="sourcePoint" />
            <mxPoint x="600" y="530" as="targetPoint" />
          </mxGeometry>
        </mxCell>
        <mxCell id="KtNkentMnjNg2-EnF80v-233" value="N" style="resizable=0;html=1;whiteSpace=wrap;align=right;verticalAlign=bottom;" parent="KtNkentMnjNg2-EnF80v-232" connectable="0" vertex="1">
          <mxGeometry x="1" relative="1" as="geometry">
            <mxPoint x="-10" as="offset" />
          </mxGeometry>
        </mxCell>
        <mxCell id="KtNkentMnjNg2-EnF80v-234" value="" style="endArrow=none;html=1;rounded=0;entryX=0;entryY=0.5;entryDx=0;entryDy=0;" parent="1" source="KtNkentMnjNg2-EnF80v-228" target="KtNkentMnjNg2-EnF80v-229" edge="1">
          <mxGeometry relative="1" as="geometry">
            <mxPoint x="350" y="530" as="sourcePoint" />
            <mxPoint x="390" y="529.5" as="targetPoint" />
          </mxGeometry>
        </mxCell>
        <mxCell id="KtNkentMnjNg2-EnF80v-239" value="" style="endArrow=none;html=1;rounded=0;entryX=0.5;entryY=1;entryDx=0;entryDy=0;exitX=0.5;exitY=0;exitDx=0;exitDy=0;" parent="1" source="KtNkentMnjNg2-EnF80v-227" target="KtNkentMnjNg2-EnF80v-230" edge="1">
          <mxGeometry relative="1" as="geometry">
            <mxPoint x="640" y="520" as="sourcePoint" />
            <mxPoint x="620" y="450" as="targetPoint" />
          </mxGeometry>
        </mxCell>
        <mxCell id="KtNkentMnjNg2-EnF80v-242" value="" style="endArrow=none;html=1;rounded=0;" parent="1" source="KtNkentMnjNg2-EnF80v-231" edge="1">
          <mxGeometry relative="1" as="geometry">
            <mxPoint x="400" y="370" as="sourcePoint" />
            <mxPoint x="630" y="270" as="targetPoint" />
            <Array as="points">
              <mxPoint x="630" y="310" />
            </Array>
          </mxGeometry>
        </mxCell>
        <mxCell id="KtNkentMnjNg2-EnF80v-243" value="N" style="resizable=0;html=1;whiteSpace=wrap;align=right;verticalAlign=bottom;" parent="KtNkentMnjNg2-EnF80v-242" connectable="0" vertex="1">
          <mxGeometry x="1" relative="1" as="geometry">
            <mxPoint x="-10" y="30" as="offset" />
          </mxGeometry>
        </mxCell>
        <mxCell id="KtNkentMnjNg2-EnF80v-244" value="name" style="ellipse;whiteSpace=wrap;html=1;align=center;" parent="1" vertex="1">
          <mxGeometry x="220" y="450" width="80" height="40" as="geometry" />
        </mxCell>
        <mxCell id="KtNkentMnjNg2-EnF80v-245" value="address" style="ellipse;whiteSpace=wrap;html=1;align=center;" parent="1" vertex="1">
          <mxGeometry x="120" y="480" width="100" height="40" as="geometry" />
        </mxCell>
        <mxCell id="KtNkentMnjNg2-EnF80v-246" value="phone_number" style="ellipse;shape=doubleEllipse;margin=3;whiteSpace=wrap;html=1;align=center;" parent="1" vertex="1">
          <mxGeometry x="80" y="530" width="100" height="40" as="geometry" />
        </mxCell>
        <mxCell id="KtNkentMnjNg2-EnF80v-247" value="date_of_birth" style="ellipse;whiteSpace=wrap;html=1;align=center;" parent="1" vertex="1">
          <mxGeometry x="120" y="590" width="100" height="40" as="geometry" />
        </mxCell>
        <mxCell id="KtNkentMnjNg2-EnF80v-248" value="age" style="ellipse;whiteSpace=wrap;html=1;align=center;dashed=1;" parent="1" vertex="1">
          <mxGeometry x="226.5" y="610" width="80" height="40" as="geometry" />
        </mxCell>
        <mxCell id="KtNkentMnjNg2-EnF80v-249" value="account_number**" style="ellipse;whiteSpace=wrap;html=1;align=center;fontStyle=4;" parent="1" vertex="1">
          <mxGeometry x="1030" y="300" width="100" height="40" as="geometry" />
        </mxCell>
        <mxCell id="KtNkentMnjNg2-EnF80v-250" value="password" style="ellipse;whiteSpace=wrap;html=1;align=center;" parent="1" vertex="1">
          <mxGeometry x="540" y="630" width="100" height="40" as="geometry" />
        </mxCell>
        <mxCell id="KtNkentMnjNg2-EnF80v-251" value="username" style="ellipse;whiteSpace=wrap;html=1;align=center;" parent="1" vertex="1">
          <mxGeometry x="470" y="590" width="100" height="40" as="geometry" />
        </mxCell>
        <mxCell id="KtNkentMnjNg2-EnF80v-252" value="NIK" style="ellipse;whiteSpace=wrap;html=1;align=center;fontStyle=4;" parent="1" vertex="1">
          <mxGeometry x="310" y="450" width="70" height="40" as="geometry" />
        </mxCell>
        <mxCell id="KtNkentMnjNg2-EnF80v-253" value="" style="endArrow=none;html=1;rounded=0;exitX=1;exitY=1;exitDx=0;exitDy=0;entryX=0;entryY=0;entryDx=0;entryDy=0;" parent="1" source="KtNkentMnjNg2-EnF80v-245" target="KtNkentMnjNg2-EnF80v-228" edge="1">
          <mxGeometry relative="1" as="geometry">
            <mxPoint x="360" y="460" as="sourcePoint" />
            <mxPoint x="520" y="460" as="targetPoint" />
          </mxGeometry>
        </mxCell>
        <mxCell id="KtNkentMnjNg2-EnF80v-254" value="" style="endArrow=none;html=1;rounded=0;exitX=1;exitY=0.5;exitDx=0;exitDy=0;entryX=0;entryY=0.5;entryDx=0;entryDy=0;" parent="1" source="KtNkentMnjNg2-EnF80v-246" target="KtNkentMnjNg2-EnF80v-228" edge="1">
          <mxGeometry relative="1" as="geometry">
            <mxPoint x="360" y="460" as="sourcePoint" />
            <mxPoint x="520" y="460" as="targetPoint" />
          </mxGeometry>
        </mxCell>
        <mxCell id="KtNkentMnjNg2-EnF80v-255" value="" style="endArrow=none;html=1;rounded=0;exitX=0.5;exitY=1;exitDx=0;exitDy=0;" parent="1" source="KtNkentMnjNg2-EnF80v-244" target="KtNkentMnjNg2-EnF80v-228" edge="1">
          <mxGeometry relative="1" as="geometry">
            <mxPoint x="360" y="460" as="sourcePoint" />
            <mxPoint x="520" y="460" as="targetPoint" />
          </mxGeometry>
        </mxCell>
        <mxCell id="KtNkentMnjNg2-EnF80v-256" value="" style="endArrow=none;html=1;rounded=0;exitX=1;exitY=0;exitDx=0;exitDy=0;entryX=0;entryY=1;entryDx=0;entryDy=0;" parent="1" source="KtNkentMnjNg2-EnF80v-247" target="KtNkentMnjNg2-EnF80v-228" edge="1">
          <mxGeometry relative="1" as="geometry">
            <mxPoint x="360" y="460" as="sourcePoint" />
            <mxPoint x="520" y="460" as="targetPoint" />
          </mxGeometry>
        </mxCell>
        <mxCell id="KtNkentMnjNg2-EnF80v-258" value="" style="endArrow=none;html=1;rounded=0;exitX=0.75;exitY=0;exitDx=0;exitDy=0;entryX=0;entryY=1;entryDx=0;entryDy=0;" parent="1" source="KtNkentMnjNg2-EnF80v-228" target="KtNkentMnjNg2-EnF80v-252" edge="1">
          <mxGeometry relative="1" as="geometry">
            <mxPoint x="360" y="460" as="sourcePoint" />
            <mxPoint x="290" y="500" as="targetPoint" />
          </mxGeometry>
        </mxCell>
        <mxCell id="KtNkentMnjNg2-EnF80v-259" value="reciever" style="ellipse;whiteSpace=wrap;html=1;align=center;" parent="1" vertex="1">
          <mxGeometry x="870" y="350" width="100" height="40" as="geometry" />
        </mxCell>
        <mxCell id="KtNkentMnjNg2-EnF80v-260" value="sender" style="ellipse;whiteSpace=wrap;html=1;align=center;" parent="1" vertex="1">
          <mxGeometry x="800" y="400" width="100" height="40" as="geometry" />
        </mxCell>
        <mxCell id="KtNkentMnjNg2-EnF80v-261" style="edgeStyle=orthogonalEdgeStyle;rounded=0;orthogonalLoop=1;jettySize=auto;html=1;exitX=0.5;exitY=1;exitDx=0;exitDy=0;" parent="1" source="KtNkentMnjNg2-EnF80v-259" target="KtNkentMnjNg2-EnF80v-259" edge="1">
          <mxGeometry relative="1" as="geometry" />
        </mxCell>
        <mxCell id="KtNkentMnjNg2-EnF80v-262" value="date" style="ellipse;whiteSpace=wrap;html=1;align=center;" parent="1" vertex="1">
          <mxGeometry x="690" y="230" width="100" height="40" as="geometry" />
        </mxCell>
        <mxCell id="KtNkentMnjNg2-EnF80v-263" value="nominal" style="ellipse;whiteSpace=wrap;html=1;align=center;" parent="1" vertex="1">
          <mxGeometry x="720" y="420" width="80" height="40" as="geometry" />
        </mxCell>
        <mxCell id="KtNkentMnjNg2-EnF80v-264" value="transaction_id" style="ellipse;whiteSpace=wrap;html=1;align=center;fontStyle=4;" parent="1" vertex="1">
          <mxGeometry x="810" y="290" width="100" height="40" as="geometry" />
        </mxCell>
        <mxCell id="KtNkentMnjNg2-EnF80v-265" value="bank_name" style="ellipse;whiteSpace=wrap;html=1;align=center;" parent="1" vertex="1">
          <mxGeometry x="730" y="520" width="100" height="40" as="geometry" />
        </mxCell>
        <mxCell id="KtNkentMnjNg2-EnF80v-266" value="NIK" style="ellipse;whiteSpace=wrap;html=1;align=center;fontStyle=4;" parent="1" vertex="1">
          <mxGeometry x="470" y="170" width="70" height="40" as="geometry" />
        </mxCell>
        <mxCell id="KtNkentMnjNg2-EnF80v-267" value="name" style="ellipse;whiteSpace=wrap;html=1;align=center;" parent="1" vertex="1">
          <mxGeometry x="420" y="120" width="100" height="40" as="geometry" />
        </mxCell>
        <mxCell id="KtNkentMnjNg2-EnF80v-268" value="phone_number" style="ellipse;shape=doubleEllipse;margin=3;whiteSpace=wrap;html=1;align=center;" parent="1" vertex="1">
          <mxGeometry x="500" y="60" width="100" height="40" as="geometry" />
        </mxCell>
        <mxCell id="KtNkentMnjNg2-EnF80v-269" value="date_of_birth" style="ellipse;whiteSpace=wrap;html=1;align=center;" parent="1" vertex="1">
          <mxGeometry x="620" y="60" width="100" height="40" as="geometry" />
        </mxCell>
        <mxCell id="KtNkentMnjNg2-EnF80v-270" value="address" style="ellipse;whiteSpace=wrap;html=1;align=center;" parent="1" vertex="1">
          <mxGeometry x="720" y="120" width="100" height="40" as="geometry" />
        </mxCell>
        <mxCell id="KtNkentMnjNg2-EnF80v-271" value="age" style="ellipse;whiteSpace=wrap;html=1;align=center;dashed=1;" parent="1" vertex="1">
          <mxGeometry x="700" y="170" width="80" height="40" as="geometry" />
        </mxCell>
        <mxCell id="KtNkentMnjNg2-EnF80v-272" value="" style="endArrow=none;html=1;rounded=0;entryX=0;entryY=0.5;entryDx=0;entryDy=0;" parent="1" source="KtNkentMnjNg2-EnF80v-226" target="KtNkentMnjNg2-EnF80v-259" edge="1">
          <mxGeometry relative="1" as="geometry">
            <mxPoint x="780" y="320" as="sourcePoint" />
            <mxPoint x="720" y="330" as="targetPoint" />
          </mxGeometry>
        </mxCell>
        <mxCell id="KtNkentMnjNg2-EnF80v-273" value="" style="endArrow=none;html=1;rounded=0;entryX=0.01;entryY=0.675;entryDx=0;entryDy=0;entryPerimeter=0;" parent="1" source="KtNkentMnjNg2-EnF80v-226" target="KtNkentMnjNg2-EnF80v-264" edge="1">
          <mxGeometry relative="1" as="geometry">
            <mxPoint x="560" y="330" as="sourcePoint" />
            <mxPoint x="720" y="330" as="targetPoint" />
          </mxGeometry>
        </mxCell>
        <mxCell id="KtNkentMnjNg2-EnF80v-274" value="" style="endArrow=none;html=1;rounded=0;exitX=0.75;exitY=1;exitDx=0;exitDy=0;entryX=0.073;entryY=0.3;entryDx=0;entryDy=0;entryPerimeter=0;" parent="1" source="KtNkentMnjNg2-EnF80v-226" target="KtNkentMnjNg2-EnF80v-260" edge="1">
          <mxGeometry relative="1" as="geometry">
            <mxPoint x="950" y="340" as="sourcePoint" />
            <mxPoint x="810" y="370" as="targetPoint" />
          </mxGeometry>
        </mxCell>
        <mxCell id="KtNkentMnjNg2-EnF80v-275" value="" style="endArrow=none;html=1;rounded=0;exitX=1;exitY=0.25;exitDx=0;exitDy=0;entryX=0;entryY=0.5;entryDx=0;entryDy=0;" parent="1" source="KtNkentMnjNg2-EnF80v-227" target="KtNkentMnjNg2-EnF80v-265" edge="1">
          <mxGeometry relative="1" as="geometry">
            <mxPoint x="750" y="469" as="sourcePoint" />
            <mxPoint x="910" y="469" as="targetPoint" />
          </mxGeometry>
        </mxCell>
        <mxCell id="KtNkentMnjNg2-EnF80v-276" value="" style="endArrow=none;html=1;rounded=0;entryX=0;entryY=0.75;entryDx=0;entryDy=0;exitX=0.598;exitY=0.019;exitDx=0;exitDy=0;exitPerimeter=0;" parent="1" source="KtNkentMnjNg2-EnF80v-251" target="KtNkentMnjNg2-EnF80v-227" edge="1">
          <mxGeometry relative="1" as="geometry">
            <mxPoint x="560" y="490" as="sourcePoint" />
            <mxPoint x="720" y="490" as="targetPoint" />
          </mxGeometry>
        </mxCell>
        <mxCell id="KtNkentMnjNg2-EnF80v-277" value="bank_name" style="ellipse;whiteSpace=wrap;html=1;align=center;" parent="1" vertex="1">
          <mxGeometry x="1040" y="350" width="100" height="40" as="geometry" />
        </mxCell>
        <mxCell id="KtNkentMnjNg2-EnF80v-278" value="account_number**" style="ellipse;whiteSpace=wrap;html=1;align=center;fontStyle=4;" parent="1" vertex="1">
          <mxGeometry x="930" y="460" width="100" height="40" as="geometry" />
        </mxCell>
        <mxCell id="KtNkentMnjNg2-EnF80v-279" value="bank_name" style="ellipse;whiteSpace=wrap;html=1;align=center;" parent="1" vertex="1">
          <mxGeometry x="940" y="400" width="100" height="40" as="geometry" />
        </mxCell>
        <mxCell id="KtNkentMnjNg2-EnF80v-280" value="" style="endArrow=none;html=1;rounded=0;entryX=0.25;entryY=1;entryDx=0;entryDy=0;exitX=0.585;exitY=0.019;exitDx=0;exitDy=0;exitPerimeter=0;" parent="1" source="KtNkentMnjNg2-EnF80v-250" target="KtNkentMnjNg2-EnF80v-227" edge="1">
          <mxGeometry relative="1" as="geometry">
            <mxPoint x="560" y="490" as="sourcePoint" />
            <mxPoint x="720" y="490" as="targetPoint" />
          </mxGeometry>
        </mxCell>
        <mxCell id="KtNkentMnjNg2-EnF80v-281" value="" style="endArrow=none;html=1;rounded=0;entryX=1;entryY=1;entryDx=0;entryDy=0;exitX=0.073;exitY=0.175;exitDx=0;exitDy=0;exitPerimeter=0;" parent="1" source="KtNkentMnjNg2-EnF80v-389" target="KtNkentMnjNg2-EnF80v-227" edge="1">
          <mxGeometry relative="1" as="geometry">
            <mxPoint x="714.6446609406726" y="595.8578643762689" as="sourcePoint" />
            <mxPoint x="720" y="490" as="targetPoint" />
          </mxGeometry>
        </mxCell>
        <mxCell id="KtNkentMnjNg2-EnF80v-282" value="" style="endArrow=none;html=1;rounded=0;entryX=0.635;entryY=0.05;entryDx=0;entryDy=0;entryPerimeter=0;exitX=0;exitY=1;exitDx=0;exitDy=0;" parent="1" source="KtNkentMnjNg2-EnF80v-262" target="KtNkentMnjNg2-EnF80v-226" edge="1">
          <mxGeometry relative="1" as="geometry">
            <mxPoint x="480" y="290" as="sourcePoint" />
            <mxPoint x="720" y="490" as="targetPoint" />
          </mxGeometry>
        </mxCell>
        <mxCell id="KtNkentMnjNg2-EnF80v-283" value="" style="endArrow=none;html=1;rounded=0;entryX=0.75;entryY=1;entryDx=0;entryDy=0;exitX=0.421;exitY=0.019;exitDx=0;exitDy=0;exitPerimeter=0;" parent="1" source="KtNkentMnjNg2-EnF80v-263" target="KtNkentMnjNg2-EnF80v-226" edge="1">
          <mxGeometry relative="1" as="geometry">
            <mxPoint x="560" y="490" as="sourcePoint" />
            <mxPoint x="520" y="470" as="targetPoint" />
          </mxGeometry>
        </mxCell>
        <mxCell id="KtNkentMnjNg2-EnF80v-284" value="" style="endArrow=none;html=1;rounded=0;entryX=0.048;entryY=0.675;entryDx=0;entryDy=0;exitX=1;exitY=0;exitDx=0;exitDy=0;entryPerimeter=0;" parent="1" source="KtNkentMnjNg2-EnF80v-259" target="KtNkentMnjNg2-EnF80v-249" edge="1">
          <mxGeometry relative="1" as="geometry">
            <mxPoint x="910" y="290" as="sourcePoint" />
            <mxPoint x="980" y="300" as="targetPoint" />
          </mxGeometry>
        </mxCell>
        <mxCell id="KtNkentMnjNg2-EnF80v-285" value="" style="endArrow=none;html=1;rounded=0;entryX=0;entryY=0.5;entryDx=0;entryDy=0;exitX=0.948;exitY=0.707;exitDx=0;exitDy=0;exitPerimeter=0;" parent="1" source="KtNkentMnjNg2-EnF80v-259" target="KtNkentMnjNg2-EnF80v-277" edge="1">
          <mxGeometry relative="1" as="geometry">
            <mxPoint x="560" y="380" as="sourcePoint" />
            <mxPoint x="720" y="380" as="targetPoint" />
          </mxGeometry>
        </mxCell>
        <mxCell id="KtNkentMnjNg2-EnF80v-286" value="" style="endArrow=none;html=1;rounded=0;exitX=1;exitY=0.5;exitDx=0;exitDy=0;" parent="1" source="KtNkentMnjNg2-EnF80v-260" target="KtNkentMnjNg2-EnF80v-279" edge="1">
          <mxGeometry relative="1" as="geometry">
            <mxPoint x="1030" y="490" as="sourcePoint" />
            <mxPoint x="1190" y="490" as="targetPoint" />
          </mxGeometry>
        </mxCell>
        <mxCell id="KtNkentMnjNg2-EnF80v-287" value="" style="endArrow=none;html=1;rounded=0;entryX=0.635;entryY=0.988;entryDx=0;entryDy=0;entryPerimeter=0;" parent="1" source="KtNkentMnjNg2-EnF80v-278" target="KtNkentMnjNg2-EnF80v-260" edge="1">
          <mxGeometry relative="1" as="geometry">
            <mxPoint x="560" y="380" as="sourcePoint" />
            <mxPoint x="720" y="380" as="targetPoint" />
          </mxGeometry>
        </mxCell>
        <mxCell id="KtNkentMnjNg2-EnF80v-288" value="" style="endArrow=none;html=1;rounded=0;exitX=0.997;exitY=0.675;exitDx=0;exitDy=0;exitPerimeter=0;entryX=0;entryY=1;entryDx=0;entryDy=0;" parent="1" source="KtNkentMnjNg2-EnF80v-266" target="KtNkentMnjNg2-EnF80v-224" edge="1">
          <mxGeometry relative="1" as="geometry">
            <mxPoint x="550" y="220" as="sourcePoint" />
            <mxPoint x="720" y="380" as="targetPoint" />
          </mxGeometry>
        </mxCell>
        <mxCell id="KtNkentMnjNg2-EnF80v-289" value="" style="endArrow=none;html=1;rounded=0;entryX=0;entryY=0.5;entryDx=0;entryDy=0;" parent="1" source="KtNkentMnjNg2-EnF80v-267" target="KtNkentMnjNg2-EnF80v-224" edge="1">
          <mxGeometry relative="1" as="geometry">
            <mxPoint x="560" y="380" as="sourcePoint" />
            <mxPoint x="720" y="380" as="targetPoint" />
          </mxGeometry>
        </mxCell>
        <mxCell id="KtNkentMnjNg2-EnF80v-290" value="" style="endArrow=none;html=1;rounded=0;exitX=0.5;exitY=1;exitDx=0;exitDy=0;entryX=0;entryY=0;entryDx=0;entryDy=0;" parent="1" source="KtNkentMnjNg2-EnF80v-268" target="KtNkentMnjNg2-EnF80v-224" edge="1">
          <mxGeometry relative="1" as="geometry">
            <mxPoint x="560" y="380" as="sourcePoint" />
            <mxPoint x="720" y="380" as="targetPoint" />
          </mxGeometry>
        </mxCell>
        <mxCell id="KtNkentMnjNg2-EnF80v-291" value="" style="endArrow=none;html=1;rounded=0;entryX=0.5;entryY=1;entryDx=0;entryDy=0;" parent="1" source="KtNkentMnjNg2-EnF80v-224" target="KtNkentMnjNg2-EnF80v-269" edge="1">
          <mxGeometry relative="1" as="geometry">
            <mxPoint x="560" y="380" as="sourcePoint" />
            <mxPoint x="720" y="380" as="targetPoint" />
          </mxGeometry>
        </mxCell>
        <mxCell id="KtNkentMnjNg2-EnF80v-292" value="" style="endArrow=none;html=1;rounded=0;entryX=0;entryY=0.5;entryDx=0;entryDy=0;exitX=1;exitY=0.5;exitDx=0;exitDy=0;" parent="1" source="KtNkentMnjNg2-EnF80v-224" target="KtNkentMnjNg2-EnF80v-270" edge="1">
          <mxGeometry relative="1" as="geometry">
            <mxPoint x="560" y="380" as="sourcePoint" />
            <mxPoint x="720" y="380" as="targetPoint" />
          </mxGeometry>
        </mxCell>
        <mxCell id="KtNkentMnjNg2-EnF80v-293" value="" style="endArrow=none;html=1;rounded=0;exitX=1;exitY=1;exitDx=0;exitDy=0;entryX=0;entryY=0.5;entryDx=0;entryDy=0;" parent="1" source="KtNkentMnjNg2-EnF80v-224" target="KtNkentMnjNg2-EnF80v-271" edge="1">
          <mxGeometry relative="1" as="geometry">
            <mxPoint x="560" y="380" as="sourcePoint" />
            <mxPoint x="720" y="380" as="targetPoint" />
          </mxGeometry>
        </mxCell>
        <mxCell id="KtNkentMnjNg2-EnF80v-294" value="username" style="ellipse;whiteSpace=wrap;html=1;align=center;" parent="1" vertex="1">
          <mxGeometry x="830" y="490" width="100" height="40" as="geometry" />
        </mxCell>
        <mxCell id="KtNkentMnjNg2-EnF80v-295" value="username" style="ellipse;whiteSpace=wrap;html=1;align=center;" parent="1" vertex="1">
          <mxGeometry x="920" y="280" width="100" height="40" as="geometry" />
        </mxCell>
        <mxCell id="KtNkentMnjNg2-EnF80v-296" value="" style="endArrow=none;html=1;rounded=0;entryX=0;entryY=1;entryDx=0;entryDy=0;" parent="1" source="KtNkentMnjNg2-EnF80v-259" target="KtNkentMnjNg2-EnF80v-295" edge="1">
          <mxGeometry relative="1" as="geometry">
            <mxPoint x="530" y="370" as="sourcePoint" />
            <mxPoint x="690" y="370" as="targetPoint" />
          </mxGeometry>
        </mxCell>
        <mxCell id="KtNkentMnjNg2-EnF80v-297" value="" style="endArrow=none;html=1;rounded=0;entryX=0.223;entryY=0.957;entryDx=0;entryDy=0;entryPerimeter=0;exitX=0.398;exitY=0.05;exitDx=0;exitDy=0;exitPerimeter=0;" parent="1" source="KtNkentMnjNg2-EnF80v-294" target="KtNkentMnjNg2-EnF80v-260" edge="1">
          <mxGeometry relative="1" as="geometry">
            <mxPoint x="800" y="420" as="sourcePoint" />
            <mxPoint x="690" y="370" as="targetPoint" />
          </mxGeometry>
        </mxCell>
        <mxCell id="KtNkentMnjNg2-EnF80v-298" value="USER" style="shape=table;startSize=30;container=1;collapsible=1;childLayout=tableLayout;fixedRows=1;rowLines=0;fontStyle=1;align=center;resizeLast=1;html=1;" parent="1" vertex="1">
          <mxGeometry x="160" y="830" width="180" height="210" as="geometry" />
        </mxCell>
        <mxCell id="KtNkentMnjNg2-EnF80v-299" value="" style="shape=tableRow;horizontal=0;startSize=0;swimlaneHead=0;swimlaneBody=0;fillColor=none;collapsible=0;dropTarget=0;points=[[0,0.5],[1,0.5]];portConstraint=eastwest;top=0;left=0;right=0;bottom=1;" parent="KtNkentMnjNg2-EnF80v-298" vertex="1">
          <mxGeometry y="30" width="180" height="30" as="geometry" />
        </mxCell>
        <mxCell id="KtNkentMnjNg2-EnF80v-300" value="PK" style="shape=partialRectangle;connectable=0;fillColor=none;top=0;left=0;bottom=0;right=0;fontStyle=1;overflow=hidden;whiteSpace=wrap;html=1;" parent="KtNkentMnjNg2-EnF80v-299" vertex="1">
          <mxGeometry width="30" height="30" as="geometry">
            <mxRectangle width="30" height="30" as="alternateBounds" />
          </mxGeometry>
        </mxCell>
        <mxCell id="KtNkentMnjNg2-EnF80v-301" value="NIK" style="shape=partialRectangle;connectable=0;fillColor=none;top=0;left=0;bottom=0;right=0;align=left;spacingLeft=6;fontStyle=5;overflow=hidden;whiteSpace=wrap;html=1;" parent="KtNkentMnjNg2-EnF80v-299" vertex="1">
          <mxGeometry x="30" width="150" height="30" as="geometry">
            <mxRectangle width="150" height="30" as="alternateBounds" />
          </mxGeometry>
        </mxCell>
        <mxCell id="KtNkentMnjNg2-EnF80v-302" value="" style="shape=tableRow;horizontal=0;startSize=0;swimlaneHead=0;swimlaneBody=0;fillColor=none;collapsible=0;dropTarget=0;points=[[0,0.5],[1,0.5]];portConstraint=eastwest;top=0;left=0;right=0;bottom=0;" parent="KtNkentMnjNg2-EnF80v-298" vertex="1">
          <mxGeometry y="60" width="180" height="30" as="geometry" />
        </mxCell>
        <mxCell id="KtNkentMnjNg2-EnF80v-303" value="" style="shape=partialRectangle;connectable=0;fillColor=none;top=0;left=0;bottom=0;right=0;editable=1;overflow=hidden;whiteSpace=wrap;html=1;" parent="KtNkentMnjNg2-EnF80v-302" vertex="1">
          <mxGeometry width="30" height="30" as="geometry">
            <mxRectangle width="30" height="30" as="alternateBounds" />
          </mxGeometry>
        </mxCell>
        <mxCell id="KtNkentMnjNg2-EnF80v-304" value="name" style="shape=partialRectangle;connectable=0;fillColor=none;top=0;left=0;bottom=0;right=0;align=left;spacingLeft=6;overflow=hidden;whiteSpace=wrap;html=1;" parent="KtNkentMnjNg2-EnF80v-302" vertex="1">
          <mxGeometry x="30" width="150" height="30" as="geometry">
            <mxRectangle width="150" height="30" as="alternateBounds" />
          </mxGeometry>
        </mxCell>
        <mxCell id="KtNkentMnjNg2-EnF80v-305" value="" style="shape=tableRow;horizontal=0;startSize=0;swimlaneHead=0;swimlaneBody=0;fillColor=none;collapsible=0;dropTarget=0;points=[[0,0.5],[1,0.5]];portConstraint=eastwest;top=0;left=0;right=0;bottom=0;" parent="KtNkentMnjNg2-EnF80v-298" vertex="1">
          <mxGeometry y="90" width="180" height="30" as="geometry" />
        </mxCell>
        <mxCell id="KtNkentMnjNg2-EnF80v-306" value="" style="shape=partialRectangle;connectable=0;fillColor=none;top=0;left=0;bottom=0;right=0;editable=1;overflow=hidden;whiteSpace=wrap;html=1;" parent="KtNkentMnjNg2-EnF80v-305" vertex="1">
          <mxGeometry width="30" height="30" as="geometry">
            <mxRectangle width="30" height="30" as="alternateBounds" />
          </mxGeometry>
        </mxCell>
        <mxCell id="KtNkentMnjNg2-EnF80v-307" value="address" style="shape=partialRectangle;connectable=0;fillColor=none;top=0;left=0;bottom=0;right=0;align=left;spacingLeft=6;overflow=hidden;whiteSpace=wrap;html=1;" parent="KtNkentMnjNg2-EnF80v-305" vertex="1">
          <mxGeometry x="30" width="150" height="30" as="geometry">
            <mxRectangle width="150" height="30" as="alternateBounds" />
          </mxGeometry>
        </mxCell>
        <mxCell id="KtNkentMnjNg2-EnF80v-308" value="" style="shape=tableRow;horizontal=0;startSize=0;swimlaneHead=0;swimlaneBody=0;fillColor=none;collapsible=0;dropTarget=0;points=[[0,0.5],[1,0.5]];portConstraint=eastwest;top=0;left=0;right=0;bottom=0;" parent="KtNkentMnjNg2-EnF80v-298" vertex="1">
          <mxGeometry y="120" width="180" height="30" as="geometry" />
        </mxCell>
        <mxCell id="KtNkentMnjNg2-EnF80v-309" value="" style="shape=partialRectangle;connectable=0;fillColor=none;top=0;left=0;bottom=0;right=0;editable=1;overflow=hidden;whiteSpace=wrap;html=1;" parent="KtNkentMnjNg2-EnF80v-308" vertex="1">
          <mxGeometry width="30" height="30" as="geometry">
            <mxRectangle width="30" height="30" as="alternateBounds" />
          </mxGeometry>
        </mxCell>
        <mxCell id="KtNkentMnjNg2-EnF80v-310" value="phone_number" style="shape=partialRectangle;connectable=0;fillColor=none;top=0;left=0;bottom=0;right=0;align=left;spacingLeft=6;overflow=hidden;whiteSpace=wrap;html=1;" parent="KtNkentMnjNg2-EnF80v-308" vertex="1">
          <mxGeometry x="30" width="150" height="30" as="geometry">
            <mxRectangle width="150" height="30" as="alternateBounds" />
          </mxGeometry>
        </mxCell>
        <mxCell id="KtNkentMnjNg2-EnF80v-311" style="shape=tableRow;horizontal=0;startSize=0;swimlaneHead=0;swimlaneBody=0;fillColor=none;collapsible=0;dropTarget=0;points=[[0,0.5],[1,0.5]];portConstraint=eastwest;top=0;left=0;right=0;bottom=0;" parent="KtNkentMnjNg2-EnF80v-298" vertex="1">
          <mxGeometry y="150" width="180" height="30" as="geometry" />
        </mxCell>
        <mxCell id="KtNkentMnjNg2-EnF80v-312" style="shape=partialRectangle;connectable=0;fillColor=none;top=0;left=0;bottom=0;right=0;editable=1;overflow=hidden;whiteSpace=wrap;html=1;" parent="KtNkentMnjNg2-EnF80v-311" vertex="1">
          <mxGeometry width="30" height="30" as="geometry">
            <mxRectangle width="30" height="30" as="alternateBounds" />
          </mxGeometry>
        </mxCell>
        <mxCell id="KtNkentMnjNg2-EnF80v-313" value="date_of_birth" style="shape=partialRectangle;connectable=0;fillColor=none;top=0;left=0;bottom=0;right=0;align=left;spacingLeft=6;overflow=hidden;whiteSpace=wrap;html=1;" parent="KtNkentMnjNg2-EnF80v-311" vertex="1">
          <mxGeometry x="30" width="150" height="30" as="geometry">
            <mxRectangle width="150" height="30" as="alternateBounds" />
          </mxGeometry>
        </mxCell>
        <mxCell id="KtNkentMnjNg2-EnF80v-314" style="shape=tableRow;horizontal=0;startSize=0;swimlaneHead=0;swimlaneBody=0;fillColor=none;collapsible=0;dropTarget=0;points=[[0,0.5],[1,0.5]];portConstraint=eastwest;top=0;left=0;right=0;bottom=0;" parent="KtNkentMnjNg2-EnF80v-298" vertex="1">
          <mxGeometry y="180" width="180" height="30" as="geometry" />
        </mxCell>
        <mxCell id="KtNkentMnjNg2-EnF80v-315" style="shape=partialRectangle;connectable=0;fillColor=none;top=0;left=0;bottom=0;right=0;editable=1;overflow=hidden;whiteSpace=wrap;html=1;" parent="KtNkentMnjNg2-EnF80v-314" vertex="1">
          <mxGeometry width="30" height="30" as="geometry">
            <mxRectangle width="30" height="30" as="alternateBounds" />
          </mxGeometry>
        </mxCell>
        <mxCell id="KtNkentMnjNg2-EnF80v-316" value="age" style="shape=partialRectangle;connectable=0;fillColor=none;top=0;left=0;bottom=0;right=0;align=left;spacingLeft=6;overflow=hidden;whiteSpace=wrap;html=1;" parent="KtNkentMnjNg2-EnF80v-314" vertex="1">
          <mxGeometry x="30" width="150" height="30" as="geometry">
            <mxRectangle width="150" height="30" as="alternateBounds" />
          </mxGeometry>
        </mxCell>
        <mxCell id="KtNkentMnjNg2-EnF80v-317" value="ACCOUNT" style="shape=table;startSize=30;container=1;collapsible=1;childLayout=tableLayout;fixedRows=1;rowLines=0;fontStyle=1;align=center;resizeLast=1;html=1;" parent="1" vertex="1">
          <mxGeometry x="420" y="830" width="180" height="210" as="geometry" />
        </mxCell>
        <mxCell id="KtNkentMnjNg2-EnF80v-318" value="" style="shape=tableRow;horizontal=0;startSize=0;swimlaneHead=0;swimlaneBody=0;fillColor=none;collapsible=0;dropTarget=0;points=[[0,0.5],[1,0.5]];portConstraint=eastwest;top=0;left=0;right=0;bottom=1;" parent="KtNkentMnjNg2-EnF80v-317" vertex="1">
          <mxGeometry y="30" width="180" height="30" as="geometry" />
        </mxCell>
        <mxCell id="KtNkentMnjNg2-EnF80v-319" value="PK" style="shape=partialRectangle;connectable=0;fillColor=none;top=0;left=0;bottom=0;right=0;fontStyle=1;overflow=hidden;whiteSpace=wrap;html=1;" parent="KtNkentMnjNg2-EnF80v-318" vertex="1">
          <mxGeometry width="30" height="30" as="geometry">
            <mxRectangle width="30" height="30" as="alternateBounds" />
          </mxGeometry>
        </mxCell>
        <mxCell id="KtNkentMnjNg2-EnF80v-320" value="account number" style="shape=partialRectangle;connectable=0;fillColor=none;top=0;left=0;bottom=0;right=0;align=left;spacingLeft=6;fontStyle=5;overflow=hidden;whiteSpace=wrap;html=1;" parent="KtNkentMnjNg2-EnF80v-318" vertex="1">
          <mxGeometry x="30" width="150" height="30" as="geometry">
            <mxRectangle width="150" height="30" as="alternateBounds" />
          </mxGeometry>
        </mxCell>
        <mxCell id="KtNkentMnjNg2-EnF80v-321" value="" style="shape=tableRow;horizontal=0;startSize=0;swimlaneHead=0;swimlaneBody=0;fillColor=none;collapsible=0;dropTarget=0;points=[[0,0.5],[1,0.5]];portConstraint=eastwest;top=0;left=0;right=0;bottom=0;" parent="KtNkentMnjNg2-EnF80v-317" vertex="1">
          <mxGeometry y="60" width="180" height="30" as="geometry" />
        </mxCell>
        <mxCell id="KtNkentMnjNg2-EnF80v-322" value="" style="shape=partialRectangle;connectable=0;fillColor=none;top=0;left=0;bottom=0;right=0;editable=1;overflow=hidden;whiteSpace=wrap;html=1;" parent="KtNkentMnjNg2-EnF80v-321" vertex="1">
          <mxGeometry width="30" height="30" as="geometry">
            <mxRectangle width="30" height="30" as="alternateBounds" />
          </mxGeometry>
        </mxCell>
        <mxCell id="KtNkentMnjNg2-EnF80v-323" value="username" style="shape=partialRectangle;connectable=0;fillColor=none;top=0;left=0;bottom=0;right=0;align=left;spacingLeft=6;overflow=hidden;whiteSpace=wrap;html=1;" parent="KtNkentMnjNg2-EnF80v-321" vertex="1">
          <mxGeometry x="30" width="150" height="30" as="geometry">
            <mxRectangle width="150" height="30" as="alternateBounds" />
          </mxGeometry>
        </mxCell>
        <mxCell id="KtNkentMnjNg2-EnF80v-324" value="" style="shape=tableRow;horizontal=0;startSize=0;swimlaneHead=0;swimlaneBody=0;fillColor=none;collapsible=0;dropTarget=0;points=[[0,0.5],[1,0.5]];portConstraint=eastwest;top=0;left=0;right=0;bottom=0;" parent="KtNkentMnjNg2-EnF80v-317" vertex="1">
          <mxGeometry y="90" width="180" height="30" as="geometry" />
        </mxCell>
        <mxCell id="KtNkentMnjNg2-EnF80v-325" value="" style="shape=partialRectangle;connectable=0;fillColor=none;top=0;left=0;bottom=0;right=0;editable=1;overflow=hidden;whiteSpace=wrap;html=1;" parent="KtNkentMnjNg2-EnF80v-324" vertex="1">
          <mxGeometry width="30" height="30" as="geometry">
            <mxRectangle width="30" height="30" as="alternateBounds" />
          </mxGeometry>
        </mxCell>
        <mxCell id="KtNkentMnjNg2-EnF80v-326" value="bank_name" style="shape=partialRectangle;connectable=0;fillColor=none;top=0;left=0;bottom=0;right=0;align=left;spacingLeft=6;overflow=hidden;whiteSpace=wrap;html=1;" parent="KtNkentMnjNg2-EnF80v-324" vertex="1">
          <mxGeometry x="30" width="150" height="30" as="geometry">
            <mxRectangle width="150" height="30" as="alternateBounds" />
          </mxGeometry>
        </mxCell>
        <mxCell id="KtNkentMnjNg2-EnF80v-327" value="" style="shape=tableRow;horizontal=0;startSize=0;swimlaneHead=0;swimlaneBody=0;fillColor=none;collapsible=0;dropTarget=0;points=[[0,0.5],[1,0.5]];portConstraint=eastwest;top=0;left=0;right=0;bottom=0;" parent="KtNkentMnjNg2-EnF80v-317" vertex="1">
          <mxGeometry y="120" width="180" height="30" as="geometry" />
        </mxCell>
        <mxCell id="KtNkentMnjNg2-EnF80v-328" value="" style="shape=partialRectangle;connectable=0;fillColor=none;top=0;left=0;bottom=0;right=0;editable=1;overflow=hidden;whiteSpace=wrap;html=1;" parent="KtNkentMnjNg2-EnF80v-327" vertex="1">
          <mxGeometry width="30" height="30" as="geometry">
            <mxRectangle width="30" height="30" as="alternateBounds" />
          </mxGeometry>
        </mxCell>
        <mxCell id="KtNkentMnjNg2-EnF80v-329" value="balance" style="shape=partialRectangle;connectable=0;fillColor=none;top=0;left=0;bottom=0;right=0;align=left;spacingLeft=6;overflow=hidden;whiteSpace=wrap;html=1;" parent="KtNkentMnjNg2-EnF80v-327" vertex="1">
          <mxGeometry x="30" width="150" height="30" as="geometry">
            <mxRectangle width="150" height="30" as="alternateBounds" />
          </mxGeometry>
        </mxCell>
        <mxCell id="W5Yc8Tz47XCsxt4rS728-278" style="shape=tableRow;horizontal=0;startSize=0;swimlaneHead=0;swimlaneBody=0;fillColor=none;collapsible=0;dropTarget=0;points=[[0,0.5],[1,0.5]];portConstraint=eastwest;top=0;left=0;right=0;bottom=0;" vertex="1" parent="KtNkentMnjNg2-EnF80v-317">
          <mxGeometry y="150" width="180" height="30" as="geometry" />
        </mxCell>
        <mxCell id="W5Yc8Tz47XCsxt4rS728-279" style="shape=partialRectangle;connectable=0;fillColor=none;top=0;left=0;bottom=0;right=0;editable=1;overflow=hidden;whiteSpace=wrap;html=1;" vertex="1" parent="W5Yc8Tz47XCsxt4rS728-278">
          <mxGeometry width="30" height="30" as="geometry">
            <mxRectangle width="30" height="30" as="alternateBounds" />
          </mxGeometry>
        </mxCell>
        <mxCell id="W5Yc8Tz47XCsxt4rS728-280" value="email_address" style="shape=partialRectangle;connectable=0;fillColor=none;top=0;left=0;bottom=0;right=0;align=left;spacingLeft=6;overflow=hidden;whiteSpace=wrap;html=1;" vertex="1" parent="W5Yc8Tz47XCsxt4rS728-278">
          <mxGeometry x="30" width="150" height="30" as="geometry">
            <mxRectangle width="150" height="30" as="alternateBounds" />
          </mxGeometry>
        </mxCell>
        <mxCell id="W5Yc8Tz47XCsxt4rS728-266" style="shape=tableRow;horizontal=0;startSize=0;swimlaneHead=0;swimlaneBody=0;fillColor=none;collapsible=0;dropTarget=0;points=[[0,0.5],[1,0.5]];portConstraint=eastwest;top=0;left=0;right=0;bottom=0;" vertex="1" parent="KtNkentMnjNg2-EnF80v-317">
          <mxGeometry y="180" width="180" height="30" as="geometry" />
        </mxCell>
        <mxCell id="W5Yc8Tz47XCsxt4rS728-267" style="shape=partialRectangle;connectable=0;fillColor=none;top=0;left=0;bottom=0;right=0;editable=1;overflow=hidden;whiteSpace=wrap;html=1;" vertex="1" parent="W5Yc8Tz47XCsxt4rS728-266">
          <mxGeometry width="30" height="30" as="geometry">
            <mxRectangle width="30" height="30" as="alternateBounds" />
          </mxGeometry>
        </mxCell>
        <mxCell id="W5Yc8Tz47XCsxt4rS728-268" value="password" style="shape=partialRectangle;connectable=0;fillColor=none;top=0;left=0;bottom=0;right=0;align=left;spacingLeft=6;overflow=hidden;whiteSpace=wrap;html=1;" vertex="1" parent="W5Yc8Tz47XCsxt4rS728-266">
          <mxGeometry x="30" width="150" height="30" as="geometry">
            <mxRectangle width="150" height="30" as="alternateBounds" />
          </mxGeometry>
        </mxCell>
        <mxCell id="KtNkentMnjNg2-EnF80v-330" value="TRANSACTION" style="shape=table;startSize=30;container=1;collapsible=1;childLayout=tableLayout;fixedRows=1;rowLines=0;fontStyle=1;align=center;resizeLast=1;html=1;" parent="1" vertex="1">
          <mxGeometry x="690" y="820" width="180" height="320" as="geometry" />
        </mxCell>
        <mxCell id="KtNkentMnjNg2-EnF80v-331" value="" style="shape=tableRow;horizontal=0;startSize=0;swimlaneHead=0;swimlaneBody=0;fillColor=none;collapsible=0;dropTarget=0;points=[[0,0.5],[1,0.5]];portConstraint=eastwest;top=0;left=0;right=0;bottom=1;" parent="KtNkentMnjNg2-EnF80v-330" vertex="1">
          <mxGeometry y="30" width="180" height="30" as="geometry" />
        </mxCell>
        <mxCell id="KtNkentMnjNg2-EnF80v-332" value="PK" style="shape=partialRectangle;connectable=0;fillColor=none;top=0;left=0;bottom=0;right=0;fontStyle=1;overflow=hidden;whiteSpace=wrap;html=1;" parent="KtNkentMnjNg2-EnF80v-331" vertex="1">
          <mxGeometry width="30" height="30" as="geometry">
            <mxRectangle width="30" height="30" as="alternateBounds" />
          </mxGeometry>
        </mxCell>
        <mxCell id="KtNkentMnjNg2-EnF80v-333" value="transaction id" style="shape=partialRectangle;connectable=0;fillColor=none;top=0;left=0;bottom=0;right=0;align=left;spacingLeft=6;fontStyle=5;overflow=hidden;whiteSpace=wrap;html=1;" parent="KtNkentMnjNg2-EnF80v-331" vertex="1">
          <mxGeometry x="30" width="150" height="30" as="geometry">
            <mxRectangle width="150" height="30" as="alternateBounds" />
          </mxGeometry>
        </mxCell>
        <mxCell id="KtNkentMnjNg2-EnF80v-334" value="" style="shape=tableRow;horizontal=0;startSize=0;swimlaneHead=0;swimlaneBody=0;fillColor=none;collapsible=0;dropTarget=0;points=[[0,0.5],[1,0.5]];portConstraint=eastwest;top=0;left=0;right=0;bottom=0;" parent="KtNkentMnjNg2-EnF80v-330" vertex="1">
          <mxGeometry y="60" width="180" height="30" as="geometry" />
        </mxCell>
        <mxCell id="KtNkentMnjNg2-EnF80v-335" value="" style="shape=partialRectangle;connectable=0;fillColor=none;top=0;left=0;bottom=0;right=0;editable=1;overflow=hidden;whiteSpace=wrap;html=1;" parent="KtNkentMnjNg2-EnF80v-334" vertex="1">
          <mxGeometry width="30" height="30" as="geometry">
            <mxRectangle width="30" height="30" as="alternateBounds" />
          </mxGeometry>
        </mxCell>
        <mxCell id="KtNkentMnjNg2-EnF80v-336" value="senderAccount_id**" style="shape=partialRectangle;connectable=0;fillColor=none;top=0;left=0;bottom=0;right=0;align=left;spacingLeft=6;overflow=hidden;whiteSpace=wrap;html=1;" parent="KtNkentMnjNg2-EnF80v-334" vertex="1">
          <mxGeometry x="30" width="150" height="30" as="geometry">
            <mxRectangle width="150" height="30" as="alternateBounds" />
          </mxGeometry>
        </mxCell>
        <mxCell id="KtNkentMnjNg2-EnF80v-337" value="" style="shape=tableRow;horizontal=0;startSize=0;swimlaneHead=0;swimlaneBody=0;fillColor=none;collapsible=0;dropTarget=0;points=[[0,0.5],[1,0.5]];portConstraint=eastwest;top=0;left=0;right=0;bottom=0;" parent="KtNkentMnjNg2-EnF80v-330" vertex="1">
          <mxGeometry y="90" width="180" height="30" as="geometry" />
        </mxCell>
        <mxCell id="KtNkentMnjNg2-EnF80v-338" value="" style="shape=partialRectangle;connectable=0;fillColor=none;top=0;left=0;bottom=0;right=0;editable=1;overflow=hidden;whiteSpace=wrap;html=1;" parent="KtNkentMnjNg2-EnF80v-337" vertex="1">
          <mxGeometry width="30" height="30" as="geometry">
            <mxRectangle width="30" height="30" as="alternateBounds" />
          </mxGeometry>
        </mxCell>
        <mxCell id="KtNkentMnjNg2-EnF80v-339" value="recieverAccount_id**" style="shape=partialRectangle;connectable=0;fillColor=none;top=0;left=0;bottom=0;right=0;align=left;spacingLeft=6;overflow=hidden;whiteSpace=wrap;html=1;" parent="KtNkentMnjNg2-EnF80v-337" vertex="1">
          <mxGeometry x="30" width="150" height="30" as="geometry">
            <mxRectangle width="150" height="30" as="alternateBounds" />
          </mxGeometry>
        </mxCell>
        <mxCell id="KtNkentMnjNg2-EnF80v-340" value="" style="shape=tableRow;horizontal=0;startSize=0;swimlaneHead=0;swimlaneBody=0;fillColor=none;collapsible=0;dropTarget=0;points=[[0,0.5],[1,0.5]];portConstraint=eastwest;top=0;left=0;right=0;bottom=0;" parent="KtNkentMnjNg2-EnF80v-330" vertex="1">
          <mxGeometry y="120" width="180" height="30" as="geometry" />
        </mxCell>
        <mxCell id="KtNkentMnjNg2-EnF80v-341" value="" style="shape=partialRectangle;connectable=0;fillColor=none;top=0;left=0;bottom=0;right=0;editable=1;overflow=hidden;whiteSpace=wrap;html=1;" parent="KtNkentMnjNg2-EnF80v-340" vertex="1">
          <mxGeometry width="30" height="30" as="geometry">
            <mxRectangle width="30" height="30" as="alternateBounds" />
          </mxGeometry>
        </mxCell>
        <mxCell id="KtNkentMnjNg2-EnF80v-342" value="senderBank_name" style="shape=partialRectangle;connectable=0;fillColor=none;top=0;left=0;bottom=0;right=0;align=left;spacingLeft=6;overflow=hidden;whiteSpace=wrap;html=1;" parent="KtNkentMnjNg2-EnF80v-340" vertex="1">
          <mxGeometry x="30" width="150" height="30" as="geometry">
            <mxRectangle width="150" height="30" as="alternateBounds" />
          </mxGeometry>
        </mxCell>
        <mxCell id="KtNkentMnjNg2-EnF80v-343" style="shape=tableRow;horizontal=0;startSize=0;swimlaneHead=0;swimlaneBody=0;fillColor=none;collapsible=0;dropTarget=0;points=[[0,0.5],[1,0.5]];portConstraint=eastwest;top=0;left=0;right=0;bottom=0;" parent="KtNkentMnjNg2-EnF80v-330" vertex="1">
          <mxGeometry y="150" width="180" height="20" as="geometry" />
        </mxCell>
        <mxCell id="KtNkentMnjNg2-EnF80v-344" style="shape=partialRectangle;connectable=0;fillColor=none;top=0;left=0;bottom=0;right=0;editable=1;overflow=hidden;whiteSpace=wrap;html=1;" parent="KtNkentMnjNg2-EnF80v-343" vertex="1">
          <mxGeometry width="30" height="20" as="geometry">
            <mxRectangle width="30" height="20" as="alternateBounds" />
          </mxGeometry>
        </mxCell>
        <mxCell id="KtNkentMnjNg2-EnF80v-345" value="recieverBank_name" style="shape=partialRectangle;connectable=0;fillColor=none;top=0;left=0;bottom=0;right=0;align=left;spacingLeft=6;overflow=hidden;whiteSpace=wrap;html=1;" parent="KtNkentMnjNg2-EnF80v-343" vertex="1">
          <mxGeometry x="30" width="150" height="20" as="geometry">
            <mxRectangle width="150" height="20" as="alternateBounds" />
          </mxGeometry>
        </mxCell>
        <mxCell id="KtNkentMnjNg2-EnF80v-346" style="shape=tableRow;horizontal=0;startSize=0;swimlaneHead=0;swimlaneBody=0;fillColor=none;collapsible=0;dropTarget=0;points=[[0,0.5],[1,0.5]];portConstraint=eastwest;top=0;left=0;right=0;bottom=0;" parent="KtNkentMnjNg2-EnF80v-330" vertex="1">
          <mxGeometry y="170" width="180" height="30" as="geometry" />
        </mxCell>
        <mxCell id="KtNkentMnjNg2-EnF80v-347" style="shape=partialRectangle;connectable=0;fillColor=none;top=0;left=0;bottom=0;right=0;editable=1;overflow=hidden;whiteSpace=wrap;html=1;" parent="KtNkentMnjNg2-EnF80v-346" vertex="1">
          <mxGeometry width="30" height="30" as="geometry">
            <mxRectangle width="30" height="30" as="alternateBounds" />
          </mxGeometry>
        </mxCell>
        <mxCell id="KtNkentMnjNg2-EnF80v-348" value="senderUsername" style="shape=partialRectangle;connectable=0;fillColor=none;top=0;left=0;bottom=0;right=0;align=left;spacingLeft=6;overflow=hidden;whiteSpace=wrap;html=1;" parent="KtNkentMnjNg2-EnF80v-346" vertex="1">
          <mxGeometry x="30" width="150" height="30" as="geometry">
            <mxRectangle width="150" height="30" as="alternateBounds" />
          </mxGeometry>
        </mxCell>
        <mxCell id="KtNkentMnjNg2-EnF80v-349" style="shape=tableRow;horizontal=0;startSize=0;swimlaneHead=0;swimlaneBody=0;fillColor=none;collapsible=0;dropTarget=0;points=[[0,0.5],[1,0.5]];portConstraint=eastwest;top=0;left=0;right=0;bottom=0;" parent="KtNkentMnjNg2-EnF80v-330" vertex="1">
          <mxGeometry y="200" width="180" height="30" as="geometry" />
        </mxCell>
        <mxCell id="KtNkentMnjNg2-EnF80v-350" style="shape=partialRectangle;connectable=0;fillColor=none;top=0;left=0;bottom=0;right=0;editable=1;overflow=hidden;whiteSpace=wrap;html=1;" parent="KtNkentMnjNg2-EnF80v-349" vertex="1">
          <mxGeometry width="30" height="30" as="geometry">
            <mxRectangle width="30" height="30" as="alternateBounds" />
          </mxGeometry>
        </mxCell>
        <mxCell id="KtNkentMnjNg2-EnF80v-351" value="recieverUsername" style="shape=partialRectangle;connectable=0;fillColor=none;top=0;left=0;bottom=0;right=0;align=left;spacingLeft=6;overflow=hidden;whiteSpace=wrap;html=1;" parent="KtNkentMnjNg2-EnF80v-349" vertex="1">
          <mxGeometry x="30" width="150" height="30" as="geometry">
            <mxRectangle width="150" height="30" as="alternateBounds" />
          </mxGeometry>
        </mxCell>
        <mxCell id="KtNkentMnjNg2-EnF80v-404" style="shape=tableRow;horizontal=0;startSize=0;swimlaneHead=0;swimlaneBody=0;fillColor=none;collapsible=0;dropTarget=0;points=[[0,0.5],[1,0.5]];portConstraint=eastwest;top=0;left=0;right=0;bottom=0;" parent="KtNkentMnjNg2-EnF80v-330" vertex="1">
          <mxGeometry y="230" width="180" height="30" as="geometry" />
        </mxCell>
        <mxCell id="KtNkentMnjNg2-EnF80v-405" style="shape=partialRectangle;connectable=0;fillColor=none;top=0;left=0;bottom=0;right=0;editable=1;overflow=hidden;whiteSpace=wrap;html=1;" parent="KtNkentMnjNg2-EnF80v-404" vertex="1">
          <mxGeometry width="30" height="30" as="geometry">
            <mxRectangle width="30" height="30" as="alternateBounds" />
          </mxGeometry>
        </mxCell>
        <mxCell id="KtNkentMnjNg2-EnF80v-406" value="date" style="shape=partialRectangle;connectable=0;fillColor=none;top=0;left=0;bottom=0;right=0;align=left;spacingLeft=6;overflow=hidden;whiteSpace=wrap;html=1;" parent="KtNkentMnjNg2-EnF80v-404" vertex="1">
          <mxGeometry x="30" width="150" height="30" as="geometry">
            <mxRectangle width="150" height="30" as="alternateBounds" />
          </mxGeometry>
        </mxCell>
        <mxCell id="KtNkentMnjNg2-EnF80v-401" style="shape=tableRow;horizontal=0;startSize=0;swimlaneHead=0;swimlaneBody=0;fillColor=none;collapsible=0;dropTarget=0;points=[[0,0.5],[1,0.5]];portConstraint=eastwest;top=0;left=0;right=0;bottom=0;" parent="KtNkentMnjNg2-EnF80v-330" vertex="1">
          <mxGeometry y="260" width="180" height="30" as="geometry" />
        </mxCell>
        <mxCell id="KtNkentMnjNg2-EnF80v-402" style="shape=partialRectangle;connectable=0;fillColor=none;top=0;left=0;bottom=0;right=0;editable=1;overflow=hidden;whiteSpace=wrap;html=1;" parent="KtNkentMnjNg2-EnF80v-401" vertex="1">
          <mxGeometry width="30" height="30" as="geometry">
            <mxRectangle width="30" height="30" as="alternateBounds" />
          </mxGeometry>
        </mxCell>
        <mxCell id="KtNkentMnjNg2-EnF80v-403" value="time" style="shape=partialRectangle;connectable=0;fillColor=none;top=0;left=0;bottom=0;right=0;align=left;spacingLeft=6;overflow=hidden;whiteSpace=wrap;html=1;" parent="KtNkentMnjNg2-EnF80v-401" vertex="1">
          <mxGeometry x="30" width="150" height="30" as="geometry">
            <mxRectangle width="150" height="30" as="alternateBounds" />
          </mxGeometry>
        </mxCell>
        <mxCell id="KtNkentMnjNg2-EnF80v-398" style="shape=tableRow;horizontal=0;startSize=0;swimlaneHead=0;swimlaneBody=0;fillColor=none;collapsible=0;dropTarget=0;points=[[0,0.5],[1,0.5]];portConstraint=eastwest;top=0;left=0;right=0;bottom=0;" parent="KtNkentMnjNg2-EnF80v-330" vertex="1">
          <mxGeometry y="290" width="180" height="30" as="geometry" />
        </mxCell>
        <mxCell id="KtNkentMnjNg2-EnF80v-399" style="shape=partialRectangle;connectable=0;fillColor=none;top=0;left=0;bottom=0;right=0;editable=1;overflow=hidden;whiteSpace=wrap;html=1;" parent="KtNkentMnjNg2-EnF80v-398" vertex="1">
          <mxGeometry width="30" height="30" as="geometry">
            <mxRectangle width="30" height="30" as="alternateBounds" />
          </mxGeometry>
        </mxCell>
        <mxCell id="KtNkentMnjNg2-EnF80v-400" value="nominal" style="shape=partialRectangle;connectable=0;fillColor=none;top=0;left=0;bottom=0;right=0;align=left;spacingLeft=6;overflow=hidden;whiteSpace=wrap;html=1;" parent="KtNkentMnjNg2-EnF80v-398" vertex="1">
          <mxGeometry x="30" width="150" height="30" as="geometry">
            <mxRectangle width="150" height="30" as="alternateBounds" />
          </mxGeometry>
        </mxCell>
        <mxCell id="KtNkentMnjNg2-EnF80v-365" value="ADMIN" style="shape=table;startSize=30;container=1;collapsible=1;childLayout=tableLayout;fixedRows=1;rowLines=0;fontStyle=1;align=center;resizeLast=1;html=1;" parent="1" vertex="1">
          <mxGeometry x="970" y="860" width="180" height="200" as="geometry" />
        </mxCell>
        <mxCell id="KtNkentMnjNg2-EnF80v-366" value="" style="shape=tableRow;horizontal=0;startSize=0;swimlaneHead=0;swimlaneBody=0;fillColor=none;collapsible=0;dropTarget=0;points=[[0,0.5],[1,0.5]];portConstraint=eastwest;top=0;left=0;right=0;bottom=1;" parent="KtNkentMnjNg2-EnF80v-365" vertex="1">
          <mxGeometry y="30" width="180" height="30" as="geometry" />
        </mxCell>
        <mxCell id="KtNkentMnjNg2-EnF80v-367" value="PK" style="shape=partialRectangle;connectable=0;fillColor=none;top=0;left=0;bottom=0;right=0;fontStyle=1;overflow=hidden;whiteSpace=wrap;html=1;" parent="KtNkentMnjNg2-EnF80v-366" vertex="1">
          <mxGeometry width="30" height="30" as="geometry">
            <mxRectangle width="30" height="30" as="alternateBounds" />
          </mxGeometry>
        </mxCell>
        <mxCell id="KtNkentMnjNg2-EnF80v-368" value="NIK" style="shape=partialRectangle;connectable=0;fillColor=none;top=0;left=0;bottom=0;right=0;align=left;spacingLeft=6;fontStyle=5;overflow=hidden;whiteSpace=wrap;html=1;" parent="KtNkentMnjNg2-EnF80v-366" vertex="1">
          <mxGeometry x="30" width="150" height="30" as="geometry">
            <mxRectangle width="150" height="30" as="alternateBounds" />
          </mxGeometry>
        </mxCell>
        <mxCell id="KtNkentMnjNg2-EnF80v-369" value="" style="shape=tableRow;horizontal=0;startSize=0;swimlaneHead=0;swimlaneBody=0;fillColor=none;collapsible=0;dropTarget=0;points=[[0,0.5],[1,0.5]];portConstraint=eastwest;top=0;left=0;right=0;bottom=0;" parent="KtNkentMnjNg2-EnF80v-365" vertex="1">
          <mxGeometry y="60" width="180" height="30" as="geometry" />
        </mxCell>
        <mxCell id="KtNkentMnjNg2-EnF80v-370" value="" style="shape=partialRectangle;connectable=0;fillColor=none;top=0;left=0;bottom=0;right=0;editable=1;overflow=hidden;whiteSpace=wrap;html=1;" parent="KtNkentMnjNg2-EnF80v-369" vertex="1">
          <mxGeometry width="30" height="30" as="geometry">
            <mxRectangle width="30" height="30" as="alternateBounds" />
          </mxGeometry>
        </mxCell>
        <mxCell id="KtNkentMnjNg2-EnF80v-371" value="name" style="shape=partialRectangle;connectable=0;fillColor=none;top=0;left=0;bottom=0;right=0;align=left;spacingLeft=6;overflow=hidden;whiteSpace=wrap;html=1;" parent="KtNkentMnjNg2-EnF80v-369" vertex="1">
          <mxGeometry x="30" width="150" height="30" as="geometry">
            <mxRectangle width="150" height="30" as="alternateBounds" />
          </mxGeometry>
        </mxCell>
        <mxCell id="KtNkentMnjNg2-EnF80v-372" value="" style="shape=tableRow;horizontal=0;startSize=0;swimlaneHead=0;swimlaneBody=0;fillColor=none;collapsible=0;dropTarget=0;points=[[0,0.5],[1,0.5]];portConstraint=eastwest;top=0;left=0;right=0;bottom=0;" parent="KtNkentMnjNg2-EnF80v-365" vertex="1">
          <mxGeometry y="90" width="180" height="20" as="geometry" />
        </mxCell>
        <mxCell id="KtNkentMnjNg2-EnF80v-373" value="" style="shape=partialRectangle;connectable=0;fillColor=none;top=0;left=0;bottom=0;right=0;editable=1;overflow=hidden;whiteSpace=wrap;html=1;" parent="KtNkentMnjNg2-EnF80v-372" vertex="1">
          <mxGeometry width="30" height="20" as="geometry">
            <mxRectangle width="30" height="20" as="alternateBounds" />
          </mxGeometry>
        </mxCell>
        <mxCell id="KtNkentMnjNg2-EnF80v-374" value="address" style="shape=partialRectangle;connectable=0;fillColor=none;top=0;left=0;bottom=0;right=0;align=left;spacingLeft=6;overflow=hidden;whiteSpace=wrap;html=1;" parent="KtNkentMnjNg2-EnF80v-372" vertex="1">
          <mxGeometry x="30" width="150" height="20" as="geometry">
            <mxRectangle width="150" height="20" as="alternateBounds" />
          </mxGeometry>
        </mxCell>
        <mxCell id="KtNkentMnjNg2-EnF80v-375" value="" style="shape=tableRow;horizontal=0;startSize=0;swimlaneHead=0;swimlaneBody=0;fillColor=none;collapsible=0;dropTarget=0;points=[[0,0.5],[1,0.5]];portConstraint=eastwest;top=0;left=0;right=0;bottom=0;" parent="KtNkentMnjNg2-EnF80v-365" vertex="1">
          <mxGeometry y="110" width="180" height="30" as="geometry" />
        </mxCell>
        <mxCell id="KtNkentMnjNg2-EnF80v-376" value="" style="shape=partialRectangle;connectable=0;fillColor=none;top=0;left=0;bottom=0;right=0;editable=1;overflow=hidden;whiteSpace=wrap;html=1;" parent="KtNkentMnjNg2-EnF80v-375" vertex="1">
          <mxGeometry width="30" height="30" as="geometry">
            <mxRectangle width="30" height="30" as="alternateBounds" />
          </mxGeometry>
        </mxCell>
        <mxCell id="KtNkentMnjNg2-EnF80v-377" value="phone_number" style="shape=partialRectangle;connectable=0;fillColor=none;top=0;left=0;bottom=0;right=0;align=left;spacingLeft=6;overflow=hidden;whiteSpace=wrap;html=1;" parent="KtNkentMnjNg2-EnF80v-375" vertex="1">
          <mxGeometry x="30" width="150" height="30" as="geometry">
            <mxRectangle width="150" height="30" as="alternateBounds" />
          </mxGeometry>
        </mxCell>
        <mxCell id="KtNkentMnjNg2-EnF80v-378" style="shape=tableRow;horizontal=0;startSize=0;swimlaneHead=0;swimlaneBody=0;fillColor=none;collapsible=0;dropTarget=0;points=[[0,0.5],[1,0.5]];portConstraint=eastwest;top=0;left=0;right=0;bottom=0;" parent="KtNkentMnjNg2-EnF80v-365" vertex="1">
          <mxGeometry y="140" width="180" height="30" as="geometry" />
        </mxCell>
        <mxCell id="KtNkentMnjNg2-EnF80v-379" style="shape=partialRectangle;connectable=0;fillColor=none;top=0;left=0;bottom=0;right=0;editable=1;overflow=hidden;whiteSpace=wrap;html=1;" parent="KtNkentMnjNg2-EnF80v-378" vertex="1">
          <mxGeometry width="30" height="30" as="geometry">
            <mxRectangle width="30" height="30" as="alternateBounds" />
          </mxGeometry>
        </mxCell>
        <mxCell id="KtNkentMnjNg2-EnF80v-380" value="date_of_birth" style="shape=partialRectangle;connectable=0;fillColor=none;top=0;left=0;bottom=0;right=0;align=left;spacingLeft=6;overflow=hidden;whiteSpace=wrap;html=1;" parent="KtNkentMnjNg2-EnF80v-378" vertex="1">
          <mxGeometry x="30" width="150" height="30" as="geometry">
            <mxRectangle width="150" height="30" as="alternateBounds" />
          </mxGeometry>
        </mxCell>
        <mxCell id="KtNkentMnjNg2-EnF80v-381" style="shape=tableRow;horizontal=0;startSize=0;swimlaneHead=0;swimlaneBody=0;fillColor=none;collapsible=0;dropTarget=0;points=[[0,0.5],[1,0.5]];portConstraint=eastwest;top=0;left=0;right=0;bottom=0;" parent="KtNkentMnjNg2-EnF80v-365" vertex="1">
          <mxGeometry y="170" width="180" height="30" as="geometry" />
        </mxCell>
        <mxCell id="KtNkentMnjNg2-EnF80v-382" style="shape=partialRectangle;connectable=0;fillColor=none;top=0;left=0;bottom=0;right=0;editable=1;overflow=hidden;whiteSpace=wrap;html=1;" parent="KtNkentMnjNg2-EnF80v-381" vertex="1">
          <mxGeometry width="30" height="30" as="geometry">
            <mxRectangle width="30" height="30" as="alternateBounds" />
          </mxGeometry>
        </mxCell>
        <mxCell id="KtNkentMnjNg2-EnF80v-383" value="age" style="shape=partialRectangle;connectable=0;fillColor=none;top=0;left=0;bottom=0;right=0;align=left;spacingLeft=6;overflow=hidden;whiteSpace=wrap;html=1;" parent="KtNkentMnjNg2-EnF80v-381" vertex="1">
          <mxGeometry x="30" width="150" height="30" as="geometry">
            <mxRectangle width="150" height="30" as="alternateBounds" />
          </mxGeometry>
        </mxCell>
        <mxCell id="KtNkentMnjNg2-EnF80v-384" value="" style="edgeStyle=entityRelationEdgeStyle;fontSize=12;html=1;endArrow=ERoneToMany;rounded=0;exitX=1.006;exitY=0.288;exitDx=0;exitDy=0;exitPerimeter=0;" parent="1" source="KtNkentMnjNg2-EnF80v-308" target="KtNkentMnjNg2-EnF80v-321" edge="1">
          <mxGeometry width="100" height="100" relative="1" as="geometry">
            <mxPoint x="560" y="1020" as="sourcePoint" />
            <mxPoint x="660" y="920" as="targetPoint" />
          </mxGeometry>
        </mxCell>
        <mxCell id="KtNkentMnjNg2-EnF80v-385" value="" style="edgeStyle=entityRelationEdgeStyle;fontSize=12;html=1;endArrow=ERoneToMany;rounded=0;entryX=0.006;entryY=0.133;entryDx=0;entryDy=0;entryPerimeter=0;exitX=1;exitY=0.5;exitDx=0;exitDy=0;" parent="1" source="KtNkentMnjNg2-EnF80v-324" target="KtNkentMnjNg2-EnF80v-330" edge="1">
          <mxGeometry width="100" height="100" relative="1" as="geometry">
            <mxPoint x="560" y="1020" as="sourcePoint" />
            <mxPoint x="660" y="920" as="targetPoint" />
          </mxGeometry>
        </mxCell>
        <mxCell id="KtNkentMnjNg2-EnF80v-387" value="" style="edgeStyle=entityRelationEdgeStyle;fontSize=12;html=1;endArrow=ERoneToMany;rounded=0;exitX=1.019;exitY=0.275;exitDx=0;exitDy=0;exitPerimeter=0;entryX=0;entryY=0.5;entryDx=0;entryDy=0;" parent="1" source="KtNkentMnjNg2-EnF80v-331" target="KtNkentMnjNg2-EnF80v-366" edge="1">
          <mxGeometry width="100" height="100" relative="1" as="geometry">
            <mxPoint x="920" y="950" as="sourcePoint" />
            <mxPoint x="1020" y="850" as="targetPoint" />
          </mxGeometry>
        </mxCell>
        <mxCell id="KtNkentMnjNg2-EnF80v-389" value="account_number" style="ellipse;whiteSpace=wrap;html=1;align=center;fontStyle=4;" parent="1" vertex="1">
          <mxGeometry x="720" y="590" width="100" height="40" as="geometry" />
        </mxCell>
        <mxCell id="KtNkentMnjNg2-EnF80v-390" value="balance" style="ellipse;whiteSpace=wrap;html=1;align=center;" parent="1" vertex="1">
          <mxGeometry x="500" y="470" width="100" height="40" as="geometry" />
        </mxCell>
        <mxCell id="KtNkentMnjNg2-EnF80v-391" value="time" style="ellipse;whiteSpace=wrap;html=1;align=center;" parent="1" vertex="1">
          <mxGeometry x="790" y="240" width="100" height="40" as="geometry" />
        </mxCell>
        <mxCell id="KtNkentMnjNg2-EnF80v-392" value="" style="endArrow=none;html=1;rounded=0;entryX=0;entryY=0.25;entryDx=0;entryDy=0;exitX=0.635;exitY=1.05;exitDx=0;exitDy=0;exitPerimeter=0;" parent="1" source="KtNkentMnjNg2-EnF80v-390" target="KtNkentMnjNg2-EnF80v-227" edge="1">
          <mxGeometry relative="1" as="geometry">
            <mxPoint x="540" y="390" as="sourcePoint" />
            <mxPoint x="700" y="390" as="targetPoint" />
          </mxGeometry>
        </mxCell>
        <mxCell id="KtNkentMnjNg2-EnF80v-393" value="" style="endArrow=none;html=1;rounded=0;entryX=-0.002;entryY=0.707;entryDx=0;entryDy=0;entryPerimeter=0;exitX=1;exitY=0;exitDx=0;exitDy=0;" parent="1" source="KtNkentMnjNg2-EnF80v-226" target="KtNkentMnjNg2-EnF80v-391" edge="1">
          <mxGeometry relative="1" as="geometry">
            <mxPoint x="760" y="310" as="sourcePoint" />
            <mxPoint x="700" y="390" as="targetPoint" />
          </mxGeometry>
        </mxCell>
        <mxCell id="KtNkentMnjNg2-EnF80v-394" value="" style="endArrow=none;html=1;rounded=0;entryX=0.5;entryY=0;entryDx=0;entryDy=0;exitX=0.61;exitY=1.019;exitDx=0;exitDy=0;exitPerimeter=0;" parent="1" source="KtNkentMnjNg2-EnF80v-226" target="KtNkentMnjNg2-EnF80v-230" edge="1">
          <mxGeometry relative="1" as="geometry">
            <mxPoint x="470" y="450" as="sourcePoint" />
            <mxPoint x="630" y="450" as="targetPoint" />
          </mxGeometry>
        </mxCell>
        <mxCell id="KtNkentMnjNg2-EnF80v-397" value="" style="endArrow=none;html=1;rounded=0;exitX=0.5;exitY=0.957;exitDx=0;exitDy=0;exitPerimeter=0;entryX=0.5;entryY=0;entryDx=0;entryDy=0;" parent="1" source="KtNkentMnjNg2-EnF80v-224" target="KtNkentMnjNg2-EnF80v-231" edge="1">
          <mxGeometry relative="1" as="geometry">
            <mxPoint x="720" y="250" as="sourcePoint" />
            <mxPoint x="690" y="280" as="targetPoint" />
          </mxGeometry>
        </mxCell>
        <mxCell id="W5Yc8Tz47XCsxt4rS728-79" value="Assets" style="childLayout=tableLayout;recursiveResize=0;strokeColor=#98bf21;fillColor=#A7C942;shadow=1;fontSize=7;" vertex="1" parent="1">
          <mxGeometry x="40" y="1250" width="1117" height="129" as="geometry" />
        </mxCell>
        <mxCell id="W5Yc8Tz47XCsxt4rS728-80" style="shape=tableRow;horizontal=0;startSize=0;swimlaneHead=0;swimlaneBody=0;top=0;left=0;bottom=0;right=0;dropTarget=0;collapsible=0;recursiveResize=0;expand=0;fontStyle=0;strokeColor=inherit;fillColor=#ffffff;" vertex="1" parent="W5Yc8Tz47XCsxt4rS728-79">
          <mxGeometry width="1117" height="33" as="geometry" />
        </mxCell>
        <mxCell id="W5Yc8Tz47XCsxt4rS728-81" value="transaction_id" style="connectable=0;recursiveResize=0;align=center;fontStyle=1;html=1;fontSize=10;" vertex="1" parent="W5Yc8Tz47XCsxt4rS728-80">
          <mxGeometry width="93" height="33" as="geometry">
            <mxRectangle width="93" height="33" as="alternateBounds" />
          </mxGeometry>
        </mxCell>
        <mxCell id="W5Yc8Tz47XCsxt4rS728-82" value="senderAcc_num" style="connectable=0;recursiveResize=0;align=center;fontStyle=1;html=1;fontSize=10;" vertex="1" parent="W5Yc8Tz47XCsxt4rS728-80">
          <mxGeometry x="93" width="94" height="33" as="geometry">
            <mxRectangle width="94" height="33" as="alternateBounds" />
          </mxGeometry>
        </mxCell>
        <mxCell id="W5Yc8Tz47XCsxt4rS728-83" value="receiverAcc_num" style="connectable=0;recursiveResize=0;align=center;fontStyle=1;html=1;fontSize=10;" vertex="1" parent="W5Yc8Tz47XCsxt4rS728-80">
          <mxGeometry x="187" width="93" height="33" as="geometry">
            <mxRectangle width="93" height="33" as="alternateBounds" />
          </mxGeometry>
        </mxCell>
        <mxCell id="W5Yc8Tz47XCsxt4rS728-105" value="senderBank" style="connectable=0;recursiveResize=0;align=center;fontStyle=1;html=1;fontSize=10;" vertex="1" parent="W5Yc8Tz47XCsxt4rS728-80">
          <mxGeometry x="280" width="93" height="33" as="geometry">
            <mxRectangle width="93" height="33" as="alternateBounds" />
          </mxGeometry>
        </mxCell>
        <mxCell id="W5Yc8Tz47XCsxt4rS728-110" value="receiverBank" style="connectable=0;recursiveResize=0;align=center;fontStyle=1;html=1;fontSize=10;" vertex="1" parent="W5Yc8Tz47XCsxt4rS728-80">
          <mxGeometry x="373" width="93" height="33" as="geometry">
            <mxRectangle width="93" height="33" as="alternateBounds" />
          </mxGeometry>
        </mxCell>
        <mxCell id="W5Yc8Tz47XCsxt4rS728-115" value="senderUsername" style="connectable=0;recursiveResize=0;align=center;fontStyle=1;html=1;fontSize=10;" vertex="1" parent="W5Yc8Tz47XCsxt4rS728-80">
          <mxGeometry x="466" width="93" height="33" as="geometry">
            <mxRectangle width="93" height="33" as="alternateBounds" />
          </mxGeometry>
        </mxCell>
        <mxCell id="W5Yc8Tz47XCsxt4rS728-120" value="receiverUsername" style="connectable=0;recursiveResize=0;align=center;fontStyle=1;html=1;fontSize=10;" vertex="1" parent="W5Yc8Tz47XCsxt4rS728-80">
          <mxGeometry x="559" width="93" height="33" as="geometry">
            <mxRectangle width="93" height="33" as="alternateBounds" />
          </mxGeometry>
        </mxCell>
        <mxCell id="W5Yc8Tz47XCsxt4rS728-285" value="senderEmail" style="connectable=0;recursiveResize=0;align=center;fontStyle=1;html=1;fontSize=10;" vertex="1" parent="W5Yc8Tz47XCsxt4rS728-80">
          <mxGeometry x="652" width="93" height="33" as="geometry">
            <mxRectangle width="93" height="33" as="alternateBounds" />
          </mxGeometry>
        </mxCell>
        <mxCell id="W5Yc8Tz47XCsxt4rS728-289" value="recieverEmail" style="connectable=0;recursiveResize=0;align=center;fontStyle=1;html=1;fontSize=10;" vertex="1" parent="W5Yc8Tz47XCsxt4rS728-80">
          <mxGeometry x="745" width="93" height="33" as="geometry">
            <mxRectangle width="93" height="33" as="alternateBounds" />
          </mxGeometry>
        </mxCell>
        <mxCell id="W5Yc8Tz47XCsxt4rS728-125" value="date" style="connectable=0;recursiveResize=0;align=center;fontStyle=1;html=1;fontSize=10;" vertex="1" parent="W5Yc8Tz47XCsxt4rS728-80">
          <mxGeometry x="838" width="93" height="33" as="geometry">
            <mxRectangle width="93" height="33" as="alternateBounds" />
          </mxGeometry>
        </mxCell>
        <mxCell id="W5Yc8Tz47XCsxt4rS728-130" value="time" style="connectable=0;recursiveResize=0;align=center;fontStyle=1;html=1;fontSize=10;" vertex="1" parent="W5Yc8Tz47XCsxt4rS728-80">
          <mxGeometry x="931" width="93" height="33" as="geometry">
            <mxRectangle width="93" height="33" as="alternateBounds" />
          </mxGeometry>
        </mxCell>
        <mxCell id="W5Yc8Tz47XCsxt4rS728-135" value="nominal" style="connectable=0;recursiveResize=0;align=center;fontStyle=1;html=1;fontSize=10;" vertex="1" parent="W5Yc8Tz47XCsxt4rS728-80">
          <mxGeometry x="1024" width="93" height="33" as="geometry">
            <mxRectangle width="93" height="33" as="alternateBounds" />
          </mxGeometry>
        </mxCell>
        <mxCell id="W5Yc8Tz47XCsxt4rS728-84" value="" style="shape=tableRow;horizontal=0;startSize=0;swimlaneHead=0;swimlaneBody=0;top=0;left=0;bottom=0;right=0;dropTarget=0;collapsible=0;recursiveResize=0;expand=0;fontStyle=0;strokeColor=inherit;fillColor=#ffffff;" vertex="1" parent="W5Yc8Tz47XCsxt4rS728-79">
          <mxGeometry y="33" width="1117" height="32" as="geometry" />
        </mxCell>
        <mxCell id="W5Yc8Tz47XCsxt4rS728-85" value="Value 1" style="connectable=0;recursiveResize=0;align=center;whiteSpace=wrap;html=1;fontSize=10;" vertex="1" parent="W5Yc8Tz47XCsxt4rS728-84">
          <mxGeometry width="93" height="32" as="geometry">
            <mxRectangle width="93" height="32" as="alternateBounds" />
          </mxGeometry>
        </mxCell>
        <mxCell id="W5Yc8Tz47XCsxt4rS728-86" value="Value 2" style="connectable=0;recursiveResize=0;align=center;whiteSpace=wrap;html=1;fontSize=10;" vertex="1" parent="W5Yc8Tz47XCsxt4rS728-84">
          <mxGeometry x="93" width="94" height="32" as="geometry">
            <mxRectangle width="94" height="32" as="alternateBounds" />
          </mxGeometry>
        </mxCell>
        <mxCell id="W5Yc8Tz47XCsxt4rS728-87" value="Value 3" style="connectable=0;recursiveResize=0;align=center;whiteSpace=wrap;html=1;fontSize=10;" vertex="1" parent="W5Yc8Tz47XCsxt4rS728-84">
          <mxGeometry x="187" width="93" height="32" as="geometry">
            <mxRectangle width="93" height="32" as="alternateBounds" />
          </mxGeometry>
        </mxCell>
        <mxCell id="W5Yc8Tz47XCsxt4rS728-106" style="connectable=0;recursiveResize=0;align=center;whiteSpace=wrap;html=1;fontSize=10;" vertex="1" parent="W5Yc8Tz47XCsxt4rS728-84">
          <mxGeometry x="280" width="93" height="32" as="geometry">
            <mxRectangle width="93" height="32" as="alternateBounds" />
          </mxGeometry>
        </mxCell>
        <mxCell id="W5Yc8Tz47XCsxt4rS728-111" style="connectable=0;recursiveResize=0;align=center;whiteSpace=wrap;html=1;fontSize=10;" vertex="1" parent="W5Yc8Tz47XCsxt4rS728-84">
          <mxGeometry x="373" width="93" height="32" as="geometry">
            <mxRectangle width="93" height="32" as="alternateBounds" />
          </mxGeometry>
        </mxCell>
        <mxCell id="W5Yc8Tz47XCsxt4rS728-116" style="connectable=0;recursiveResize=0;align=center;whiteSpace=wrap;html=1;fontSize=10;" vertex="1" parent="W5Yc8Tz47XCsxt4rS728-84">
          <mxGeometry x="466" width="93" height="32" as="geometry">
            <mxRectangle width="93" height="32" as="alternateBounds" />
          </mxGeometry>
        </mxCell>
        <mxCell id="W5Yc8Tz47XCsxt4rS728-121" style="connectable=0;recursiveResize=0;align=center;whiteSpace=wrap;html=1;fontSize=10;" vertex="1" parent="W5Yc8Tz47XCsxt4rS728-84">
          <mxGeometry x="559" width="93" height="32" as="geometry">
            <mxRectangle width="93" height="32" as="alternateBounds" />
          </mxGeometry>
        </mxCell>
        <mxCell id="W5Yc8Tz47XCsxt4rS728-286" style="connectable=0;recursiveResize=0;align=center;whiteSpace=wrap;html=1;fontSize=10;" vertex="1" parent="W5Yc8Tz47XCsxt4rS728-84">
          <mxGeometry x="652" width="93" height="32" as="geometry">
            <mxRectangle width="93" height="32" as="alternateBounds" />
          </mxGeometry>
        </mxCell>
        <mxCell id="W5Yc8Tz47XCsxt4rS728-290" style="connectable=0;recursiveResize=0;align=center;whiteSpace=wrap;html=1;fontSize=10;" vertex="1" parent="W5Yc8Tz47XCsxt4rS728-84">
          <mxGeometry x="745" width="93" height="32" as="geometry">
            <mxRectangle width="93" height="32" as="alternateBounds" />
          </mxGeometry>
        </mxCell>
        <mxCell id="W5Yc8Tz47XCsxt4rS728-126" style="connectable=0;recursiveResize=0;align=center;whiteSpace=wrap;html=1;fontSize=10;" vertex="1" parent="W5Yc8Tz47XCsxt4rS728-84">
          <mxGeometry x="838" width="93" height="32" as="geometry">
            <mxRectangle width="93" height="32" as="alternateBounds" />
          </mxGeometry>
        </mxCell>
        <mxCell id="W5Yc8Tz47XCsxt4rS728-131" style="connectable=0;recursiveResize=0;align=center;whiteSpace=wrap;html=1;fontSize=10;" vertex="1" parent="W5Yc8Tz47XCsxt4rS728-84">
          <mxGeometry x="931" width="93" height="32" as="geometry">
            <mxRectangle width="93" height="32" as="alternateBounds" />
          </mxGeometry>
        </mxCell>
        <mxCell id="W5Yc8Tz47XCsxt4rS728-136" style="connectable=0;recursiveResize=0;align=center;whiteSpace=wrap;html=1;fontSize=10;" vertex="1" parent="W5Yc8Tz47XCsxt4rS728-84">
          <mxGeometry x="1024" width="93" height="32" as="geometry">
            <mxRectangle width="93" height="32" as="alternateBounds" />
          </mxGeometry>
        </mxCell>
        <mxCell id="W5Yc8Tz47XCsxt4rS728-88" value="" style="shape=tableRow;horizontal=0;startSize=0;swimlaneHead=0;swimlaneBody=0;top=0;left=0;bottom=0;right=0;dropTarget=0;collapsible=0;recursiveResize=0;expand=0;fontStyle=1;strokeColor=inherit;fillColor=#EAF2D3;" vertex="1" parent="W5Yc8Tz47XCsxt4rS728-79">
          <mxGeometry y="65" width="1117" height="31" as="geometry" />
        </mxCell>
        <mxCell id="W5Yc8Tz47XCsxt4rS728-89" value="Value 4" style="connectable=0;recursiveResize=0;whiteSpace=wrap;html=1;fontSize=10;" vertex="1" parent="W5Yc8Tz47XCsxt4rS728-88">
          <mxGeometry width="93" height="31" as="geometry">
            <mxRectangle width="93" height="31" as="alternateBounds" />
          </mxGeometry>
        </mxCell>
        <mxCell id="W5Yc8Tz47XCsxt4rS728-90" value="Value 5" style="connectable=0;recursiveResize=0;whiteSpace=wrap;html=1;fontSize=10;" vertex="1" parent="W5Yc8Tz47XCsxt4rS728-88">
          <mxGeometry x="93" width="94" height="31" as="geometry">
            <mxRectangle width="94" height="31" as="alternateBounds" />
          </mxGeometry>
        </mxCell>
        <mxCell id="W5Yc8Tz47XCsxt4rS728-91" value="Value 6" style="connectable=0;recursiveResize=0;whiteSpace=wrap;html=1;fontSize=10;" vertex="1" parent="W5Yc8Tz47XCsxt4rS728-88">
          <mxGeometry x="187" width="93" height="31" as="geometry">
            <mxRectangle width="93" height="31" as="alternateBounds" />
          </mxGeometry>
        </mxCell>
        <mxCell id="W5Yc8Tz47XCsxt4rS728-107" style="connectable=0;recursiveResize=0;whiteSpace=wrap;html=1;fontSize=10;" vertex="1" parent="W5Yc8Tz47XCsxt4rS728-88">
          <mxGeometry x="280" width="93" height="31" as="geometry">
            <mxRectangle width="93" height="31" as="alternateBounds" />
          </mxGeometry>
        </mxCell>
        <mxCell id="W5Yc8Tz47XCsxt4rS728-112" style="connectable=0;recursiveResize=0;whiteSpace=wrap;html=1;fontSize=10;" vertex="1" parent="W5Yc8Tz47XCsxt4rS728-88">
          <mxGeometry x="373" width="93" height="31" as="geometry">
            <mxRectangle width="93" height="31" as="alternateBounds" />
          </mxGeometry>
        </mxCell>
        <mxCell id="W5Yc8Tz47XCsxt4rS728-117" style="connectable=0;recursiveResize=0;whiteSpace=wrap;html=1;fontSize=10;" vertex="1" parent="W5Yc8Tz47XCsxt4rS728-88">
          <mxGeometry x="466" width="93" height="31" as="geometry">
            <mxRectangle width="93" height="31" as="alternateBounds" />
          </mxGeometry>
        </mxCell>
        <mxCell id="W5Yc8Tz47XCsxt4rS728-122" style="connectable=0;recursiveResize=0;whiteSpace=wrap;html=1;fontSize=10;" vertex="1" parent="W5Yc8Tz47XCsxt4rS728-88">
          <mxGeometry x="559" width="93" height="31" as="geometry">
            <mxRectangle width="93" height="31" as="alternateBounds" />
          </mxGeometry>
        </mxCell>
        <mxCell id="W5Yc8Tz47XCsxt4rS728-287" style="connectable=0;recursiveResize=0;whiteSpace=wrap;html=1;fontSize=10;" vertex="1" parent="W5Yc8Tz47XCsxt4rS728-88">
          <mxGeometry x="652" width="93" height="31" as="geometry">
            <mxRectangle width="93" height="31" as="alternateBounds" />
          </mxGeometry>
        </mxCell>
        <mxCell id="W5Yc8Tz47XCsxt4rS728-291" style="connectable=0;recursiveResize=0;whiteSpace=wrap;html=1;fontSize=10;" vertex="1" parent="W5Yc8Tz47XCsxt4rS728-88">
          <mxGeometry x="745" width="93" height="31" as="geometry">
            <mxRectangle width="93" height="31" as="alternateBounds" />
          </mxGeometry>
        </mxCell>
        <mxCell id="W5Yc8Tz47XCsxt4rS728-127" style="connectable=0;recursiveResize=0;whiteSpace=wrap;html=1;fontSize=10;" vertex="1" parent="W5Yc8Tz47XCsxt4rS728-88">
          <mxGeometry x="838" width="93" height="31" as="geometry">
            <mxRectangle width="93" height="31" as="alternateBounds" />
          </mxGeometry>
        </mxCell>
        <mxCell id="W5Yc8Tz47XCsxt4rS728-132" style="connectable=0;recursiveResize=0;whiteSpace=wrap;html=1;fontSize=10;" vertex="1" parent="W5Yc8Tz47XCsxt4rS728-88">
          <mxGeometry x="931" width="93" height="31" as="geometry">
            <mxRectangle width="93" height="31" as="alternateBounds" />
          </mxGeometry>
        </mxCell>
        <mxCell id="W5Yc8Tz47XCsxt4rS728-137" style="connectable=0;recursiveResize=0;whiteSpace=wrap;html=1;fontSize=10;" vertex="1" parent="W5Yc8Tz47XCsxt4rS728-88">
          <mxGeometry x="1024" width="93" height="31" as="geometry">
            <mxRectangle width="93" height="31" as="alternateBounds" />
          </mxGeometry>
        </mxCell>
        <mxCell id="W5Yc8Tz47XCsxt4rS728-92" value="" style="shape=tableRow;horizontal=0;startSize=0;swimlaneHead=0;swimlaneBody=0;top=0;left=0;bottom=0;right=0;dropTarget=0;collapsible=0;recursiveResize=0;expand=0;fontStyle=0;strokeColor=inherit;fillColor=#ffffff;" vertex="1" parent="W5Yc8Tz47XCsxt4rS728-79">
          <mxGeometry y="96" width="1117" height="33" as="geometry" />
        </mxCell>
        <mxCell id="W5Yc8Tz47XCsxt4rS728-93" value="Value 7" style="connectable=0;recursiveResize=0;fontStyle=0;align=center;whiteSpace=wrap;html=1;fontSize=10;" vertex="1" parent="W5Yc8Tz47XCsxt4rS728-92">
          <mxGeometry width="93" height="33" as="geometry">
            <mxRectangle width="93" height="33" as="alternateBounds" />
          </mxGeometry>
        </mxCell>
        <mxCell id="W5Yc8Tz47XCsxt4rS728-94" value="Value 8" style="connectable=0;recursiveResize=0;fontStyle=0;align=center;whiteSpace=wrap;html=1;fontSize=10;" vertex="1" parent="W5Yc8Tz47XCsxt4rS728-92">
          <mxGeometry x="93" width="94" height="33" as="geometry">
            <mxRectangle width="94" height="33" as="alternateBounds" />
          </mxGeometry>
        </mxCell>
        <mxCell id="W5Yc8Tz47XCsxt4rS728-95" value="Value 9" style="connectable=0;recursiveResize=0;fontStyle=0;align=center;whiteSpace=wrap;html=1;fontSize=10;" vertex="1" parent="W5Yc8Tz47XCsxt4rS728-92">
          <mxGeometry x="187" width="93" height="33" as="geometry">
            <mxRectangle width="93" height="33" as="alternateBounds" />
          </mxGeometry>
        </mxCell>
        <mxCell id="W5Yc8Tz47XCsxt4rS728-108" style="connectable=0;recursiveResize=0;fontStyle=0;align=center;whiteSpace=wrap;html=1;fontSize=10;" vertex="1" parent="W5Yc8Tz47XCsxt4rS728-92">
          <mxGeometry x="280" width="93" height="33" as="geometry">
            <mxRectangle width="93" height="33" as="alternateBounds" />
          </mxGeometry>
        </mxCell>
        <mxCell id="W5Yc8Tz47XCsxt4rS728-113" style="connectable=0;recursiveResize=0;fontStyle=0;align=center;whiteSpace=wrap;html=1;fontSize=10;" vertex="1" parent="W5Yc8Tz47XCsxt4rS728-92">
          <mxGeometry x="373" width="93" height="33" as="geometry">
            <mxRectangle width="93" height="33" as="alternateBounds" />
          </mxGeometry>
        </mxCell>
        <mxCell id="W5Yc8Tz47XCsxt4rS728-118" style="connectable=0;recursiveResize=0;fontStyle=0;align=center;whiteSpace=wrap;html=1;fontSize=10;" vertex="1" parent="W5Yc8Tz47XCsxt4rS728-92">
          <mxGeometry x="466" width="93" height="33" as="geometry">
            <mxRectangle width="93" height="33" as="alternateBounds" />
          </mxGeometry>
        </mxCell>
        <mxCell id="W5Yc8Tz47XCsxt4rS728-123" style="connectable=0;recursiveResize=0;fontStyle=0;align=center;whiteSpace=wrap;html=1;fontSize=10;" vertex="1" parent="W5Yc8Tz47XCsxt4rS728-92">
          <mxGeometry x="559" width="93" height="33" as="geometry">
            <mxRectangle width="93" height="33" as="alternateBounds" />
          </mxGeometry>
        </mxCell>
        <mxCell id="W5Yc8Tz47XCsxt4rS728-288" style="connectable=0;recursiveResize=0;fontStyle=0;align=center;whiteSpace=wrap;html=1;fontSize=10;" vertex="1" parent="W5Yc8Tz47XCsxt4rS728-92">
          <mxGeometry x="652" width="93" height="33" as="geometry">
            <mxRectangle width="93" height="33" as="alternateBounds" />
          </mxGeometry>
        </mxCell>
        <mxCell id="W5Yc8Tz47XCsxt4rS728-292" style="connectable=0;recursiveResize=0;fontStyle=0;align=center;whiteSpace=wrap;html=1;fontSize=10;" vertex="1" parent="W5Yc8Tz47XCsxt4rS728-92">
          <mxGeometry x="745" width="93" height="33" as="geometry">
            <mxRectangle width="93" height="33" as="alternateBounds" />
          </mxGeometry>
        </mxCell>
        <mxCell id="W5Yc8Tz47XCsxt4rS728-128" style="connectable=0;recursiveResize=0;fontStyle=0;align=center;whiteSpace=wrap;html=1;fontSize=10;" vertex="1" parent="W5Yc8Tz47XCsxt4rS728-92">
          <mxGeometry x="838" width="93" height="33" as="geometry">
            <mxRectangle width="93" height="33" as="alternateBounds" />
          </mxGeometry>
        </mxCell>
        <mxCell id="W5Yc8Tz47XCsxt4rS728-133" style="connectable=0;recursiveResize=0;fontStyle=0;align=center;whiteSpace=wrap;html=1;fontSize=10;" vertex="1" parent="W5Yc8Tz47XCsxt4rS728-92">
          <mxGeometry x="931" width="93" height="33" as="geometry">
            <mxRectangle width="93" height="33" as="alternateBounds" />
          </mxGeometry>
        </mxCell>
        <mxCell id="W5Yc8Tz47XCsxt4rS728-138" style="connectable=0;recursiveResize=0;fontStyle=0;align=center;whiteSpace=wrap;html=1;fontSize=10;" vertex="1" parent="W5Yc8Tz47XCsxt4rS728-92">
          <mxGeometry x="1024" width="93" height="33" as="geometry">
            <mxRectangle width="93" height="33" as="alternateBounds" />
          </mxGeometry>
        </mxCell>
        <mxCell id="W5Yc8Tz47XCsxt4rS728-167" value="Assets" style="childLayout=tableLayout;recursiveResize=0;shadow=1;fontSize=7;" vertex="1" parent="1">
          <mxGeometry x="31" y="1490" width="559" height="129" as="geometry" />
        </mxCell>
        <mxCell id="W5Yc8Tz47XCsxt4rS728-168" style="shape=tableRow;horizontal=0;startSize=0;swimlaneHead=0;swimlaneBody=0;top=0;left=0;bottom=0;right=0;dropTarget=0;collapsible=0;recursiveResize=0;expand=0;fontStyle=0;" vertex="1" parent="W5Yc8Tz47XCsxt4rS728-167">
          <mxGeometry width="559" height="33" as="geometry" />
        </mxCell>
        <mxCell id="W5Yc8Tz47XCsxt4rS728-169" value="transaction_id" style="connectable=0;recursiveResize=0;align=center;fontStyle=1;html=1;fontSize=10;" vertex="1" parent="W5Yc8Tz47XCsxt4rS728-168">
          <mxGeometry width="93" height="33" as="geometry">
            <mxRectangle width="93" height="33" as="alternateBounds" />
          </mxGeometry>
        </mxCell>
        <mxCell id="W5Yc8Tz47XCsxt4rS728-170" value="senderAcc_num" style="connectable=0;recursiveResize=0;align=center;fontStyle=1;html=1;fontSize=10;" vertex="1" parent="W5Yc8Tz47XCsxt4rS728-168">
          <mxGeometry x="93" width="94" height="33" as="geometry">
            <mxRectangle width="94" height="33" as="alternateBounds" />
          </mxGeometry>
        </mxCell>
        <mxCell id="W5Yc8Tz47XCsxt4rS728-171" value="receiverAcc_num" style="connectable=0;recursiveResize=0;align=center;fontStyle=1;html=1;fontSize=10;" vertex="1" parent="W5Yc8Tz47XCsxt4rS728-168">
          <mxGeometry x="187" width="93" height="33" as="geometry">
            <mxRectangle width="93" height="33" as="alternateBounds" />
          </mxGeometry>
        </mxCell>
        <mxCell id="W5Yc8Tz47XCsxt4rS728-176" value="date" style="connectable=0;recursiveResize=0;align=center;fontStyle=1;html=1;fontSize=10;" vertex="1" parent="W5Yc8Tz47XCsxt4rS728-168">
          <mxGeometry x="280" width="93" height="33" as="geometry">
            <mxRectangle width="93" height="33" as="alternateBounds" />
          </mxGeometry>
        </mxCell>
        <mxCell id="W5Yc8Tz47XCsxt4rS728-177" value="time" style="connectable=0;recursiveResize=0;align=center;fontStyle=1;html=1;fontSize=10;" vertex="1" parent="W5Yc8Tz47XCsxt4rS728-168">
          <mxGeometry x="373" width="93" height="33" as="geometry">
            <mxRectangle width="93" height="33" as="alternateBounds" />
          </mxGeometry>
        </mxCell>
        <mxCell id="W5Yc8Tz47XCsxt4rS728-178" value="nominal" style="connectable=0;recursiveResize=0;align=center;fontStyle=1;html=1;fontSize=10;" vertex="1" parent="W5Yc8Tz47XCsxt4rS728-168">
          <mxGeometry x="466" width="93" height="33" as="geometry">
            <mxRectangle width="93" height="33" as="alternateBounds" />
          </mxGeometry>
        </mxCell>
        <mxCell id="W5Yc8Tz47XCsxt4rS728-179" value="" style="shape=tableRow;horizontal=0;startSize=0;swimlaneHead=0;swimlaneBody=0;top=0;left=0;bottom=0;right=0;dropTarget=0;collapsible=0;recursiveResize=0;expand=0;fontStyle=0;" vertex="1" parent="W5Yc8Tz47XCsxt4rS728-167">
          <mxGeometry y="33" width="559" height="32" as="geometry" />
        </mxCell>
        <mxCell id="W5Yc8Tz47XCsxt4rS728-180" value="Value 1" style="connectable=0;recursiveResize=0;align=center;whiteSpace=wrap;html=1;fontSize=10;" vertex="1" parent="W5Yc8Tz47XCsxt4rS728-179">
          <mxGeometry width="93" height="32" as="geometry">
            <mxRectangle width="93" height="32" as="alternateBounds" />
          </mxGeometry>
        </mxCell>
        <mxCell id="W5Yc8Tz47XCsxt4rS728-181" value="Value 2" style="connectable=0;recursiveResize=0;align=center;whiteSpace=wrap;html=1;fontSize=10;" vertex="1" parent="W5Yc8Tz47XCsxt4rS728-179">
          <mxGeometry x="93" width="94" height="32" as="geometry">
            <mxRectangle width="94" height="32" as="alternateBounds" />
          </mxGeometry>
        </mxCell>
        <mxCell id="W5Yc8Tz47XCsxt4rS728-182" value="Value 3" style="connectable=0;recursiveResize=0;align=center;whiteSpace=wrap;html=1;fontSize=10;" vertex="1" parent="W5Yc8Tz47XCsxt4rS728-179">
          <mxGeometry x="187" width="93" height="32" as="geometry">
            <mxRectangle width="93" height="32" as="alternateBounds" />
          </mxGeometry>
        </mxCell>
        <mxCell id="W5Yc8Tz47XCsxt4rS728-187" style="connectable=0;recursiveResize=0;align=center;whiteSpace=wrap;html=1;fontSize=10;" vertex="1" parent="W5Yc8Tz47XCsxt4rS728-179">
          <mxGeometry x="280" width="93" height="32" as="geometry">
            <mxRectangle width="93" height="32" as="alternateBounds" />
          </mxGeometry>
        </mxCell>
        <mxCell id="W5Yc8Tz47XCsxt4rS728-188" style="connectable=0;recursiveResize=0;align=center;whiteSpace=wrap;html=1;fontSize=10;" vertex="1" parent="W5Yc8Tz47XCsxt4rS728-179">
          <mxGeometry x="373" width="93" height="32" as="geometry">
            <mxRectangle width="93" height="32" as="alternateBounds" />
          </mxGeometry>
        </mxCell>
        <mxCell id="W5Yc8Tz47XCsxt4rS728-189" style="connectable=0;recursiveResize=0;align=center;whiteSpace=wrap;html=1;fontSize=10;" vertex="1" parent="W5Yc8Tz47XCsxt4rS728-179">
          <mxGeometry x="466" width="93" height="32" as="geometry">
            <mxRectangle width="93" height="32" as="alternateBounds" />
          </mxGeometry>
        </mxCell>
        <mxCell id="W5Yc8Tz47XCsxt4rS728-190" value="" style="shape=tableRow;horizontal=0;startSize=0;swimlaneHead=0;swimlaneBody=0;top=0;left=0;bottom=0;right=0;dropTarget=0;collapsible=0;recursiveResize=0;expand=0;fontStyle=1;" vertex="1" parent="W5Yc8Tz47XCsxt4rS728-167">
          <mxGeometry y="65" width="559" height="31" as="geometry" />
        </mxCell>
        <mxCell id="W5Yc8Tz47XCsxt4rS728-191" value="Value 4" style="connectable=0;recursiveResize=0;whiteSpace=wrap;html=1;fontSize=10;" vertex="1" parent="W5Yc8Tz47XCsxt4rS728-190">
          <mxGeometry width="93" height="31" as="geometry">
            <mxRectangle width="93" height="31" as="alternateBounds" />
          </mxGeometry>
        </mxCell>
        <mxCell id="W5Yc8Tz47XCsxt4rS728-192" value="Value 5" style="connectable=0;recursiveResize=0;whiteSpace=wrap;html=1;fontSize=10;" vertex="1" parent="W5Yc8Tz47XCsxt4rS728-190">
          <mxGeometry x="93" width="94" height="31" as="geometry">
            <mxRectangle width="94" height="31" as="alternateBounds" />
          </mxGeometry>
        </mxCell>
        <mxCell id="W5Yc8Tz47XCsxt4rS728-193" value="Value 6" style="connectable=0;recursiveResize=0;whiteSpace=wrap;html=1;fontSize=10;" vertex="1" parent="W5Yc8Tz47XCsxt4rS728-190">
          <mxGeometry x="187" width="93" height="31" as="geometry">
            <mxRectangle width="93" height="31" as="alternateBounds" />
          </mxGeometry>
        </mxCell>
        <mxCell id="W5Yc8Tz47XCsxt4rS728-198" style="connectable=0;recursiveResize=0;whiteSpace=wrap;html=1;fontSize=10;" vertex="1" parent="W5Yc8Tz47XCsxt4rS728-190">
          <mxGeometry x="280" width="93" height="31" as="geometry">
            <mxRectangle width="93" height="31" as="alternateBounds" />
          </mxGeometry>
        </mxCell>
        <mxCell id="W5Yc8Tz47XCsxt4rS728-199" style="connectable=0;recursiveResize=0;whiteSpace=wrap;html=1;fontSize=10;" vertex="1" parent="W5Yc8Tz47XCsxt4rS728-190">
          <mxGeometry x="373" width="93" height="31" as="geometry">
            <mxRectangle width="93" height="31" as="alternateBounds" />
          </mxGeometry>
        </mxCell>
        <mxCell id="W5Yc8Tz47XCsxt4rS728-200" style="connectable=0;recursiveResize=0;whiteSpace=wrap;html=1;fontSize=10;" vertex="1" parent="W5Yc8Tz47XCsxt4rS728-190">
          <mxGeometry x="466" width="93" height="31" as="geometry">
            <mxRectangle width="93" height="31" as="alternateBounds" />
          </mxGeometry>
        </mxCell>
        <mxCell id="W5Yc8Tz47XCsxt4rS728-201" value="" style="shape=tableRow;horizontal=0;startSize=0;swimlaneHead=0;swimlaneBody=0;top=0;left=0;bottom=0;right=0;dropTarget=0;collapsible=0;recursiveResize=0;expand=0;fontStyle=0;" vertex="1" parent="W5Yc8Tz47XCsxt4rS728-167">
          <mxGeometry y="96" width="559" height="33" as="geometry" />
        </mxCell>
        <mxCell id="W5Yc8Tz47XCsxt4rS728-202" value="Value 7" style="connectable=0;recursiveResize=0;fontStyle=0;align=center;whiteSpace=wrap;html=1;fontSize=10;" vertex="1" parent="W5Yc8Tz47XCsxt4rS728-201">
          <mxGeometry width="93" height="33" as="geometry">
            <mxRectangle width="93" height="33" as="alternateBounds" />
          </mxGeometry>
        </mxCell>
        <mxCell id="W5Yc8Tz47XCsxt4rS728-203" value="Value 8" style="connectable=0;recursiveResize=0;fontStyle=0;align=center;whiteSpace=wrap;html=1;fontSize=10;" vertex="1" parent="W5Yc8Tz47XCsxt4rS728-201">
          <mxGeometry x="93" width="94" height="33" as="geometry">
            <mxRectangle width="94" height="33" as="alternateBounds" />
          </mxGeometry>
        </mxCell>
        <mxCell id="W5Yc8Tz47XCsxt4rS728-204" value="Value 9" style="connectable=0;recursiveResize=0;fontStyle=0;align=center;whiteSpace=wrap;html=1;fontSize=10;" vertex="1" parent="W5Yc8Tz47XCsxt4rS728-201">
          <mxGeometry x="187" width="93" height="33" as="geometry">
            <mxRectangle width="93" height="33" as="alternateBounds" />
          </mxGeometry>
        </mxCell>
        <mxCell id="W5Yc8Tz47XCsxt4rS728-209" style="connectable=0;recursiveResize=0;fontStyle=0;align=center;whiteSpace=wrap;html=1;fontSize=10;" vertex="1" parent="W5Yc8Tz47XCsxt4rS728-201">
          <mxGeometry x="280" width="93" height="33" as="geometry">
            <mxRectangle width="93" height="33" as="alternateBounds" />
          </mxGeometry>
        </mxCell>
        <mxCell id="W5Yc8Tz47XCsxt4rS728-210" style="connectable=0;recursiveResize=0;fontStyle=0;align=center;whiteSpace=wrap;html=1;fontSize=10;" vertex="1" parent="W5Yc8Tz47XCsxt4rS728-201">
          <mxGeometry x="373" width="93" height="33" as="geometry">
            <mxRectangle width="93" height="33" as="alternateBounds" />
          </mxGeometry>
        </mxCell>
        <mxCell id="W5Yc8Tz47XCsxt4rS728-211" style="connectable=0;recursiveResize=0;fontStyle=0;align=center;whiteSpace=wrap;html=1;fontSize=10;" vertex="1" parent="W5Yc8Tz47XCsxt4rS728-201">
          <mxGeometry x="466" width="93" height="33" as="geometry">
            <mxRectangle width="93" height="33" as="alternateBounds" />
          </mxGeometry>
        </mxCell>
        <mxCell id="W5Yc8Tz47XCsxt4rS728-237" value="Assets" style="childLayout=tableLayout;recursiveResize=0;shadow=1;fontSize=7;" vertex="1" parent="1">
          <mxGeometry x="77.5" y="1730" width="559" height="126" as="geometry" />
        </mxCell>
        <mxCell id="W5Yc8Tz47XCsxt4rS728-238" style="shape=tableRow;horizontal=0;startSize=0;swimlaneHead=0;swimlaneBody=0;top=0;left=0;bottom=0;right=0;dropTarget=0;collapsible=0;recursiveResize=0;expand=0;fontStyle=0;" vertex="1" parent="W5Yc8Tz47XCsxt4rS728-237">
          <mxGeometry width="559" height="30" as="geometry" />
        </mxCell>
        <mxCell id="W5Yc8Tz47XCsxt4rS728-239" value="account_number" style="connectable=0;recursiveResize=0;align=center;fontStyle=1;html=1;fontSize=10;" vertex="1" parent="W5Yc8Tz47XCsxt4rS728-238">
          <mxGeometry width="93" height="30" as="geometry">
            <mxRectangle width="93" height="30" as="alternateBounds" />
          </mxGeometry>
        </mxCell>
        <mxCell id="W5Yc8Tz47XCsxt4rS728-480" value="NIK" style="connectable=0;recursiveResize=0;align=center;fontStyle=1;html=1;fontSize=10;" vertex="1" parent="W5Yc8Tz47XCsxt4rS728-238">
          <mxGeometry x="93" width="93" height="30" as="geometry">
            <mxRectangle width="93" height="30" as="alternateBounds" />
          </mxGeometry>
        </mxCell>
        <mxCell id="W5Yc8Tz47XCsxt4rS728-240" value="username" style="connectable=0;recursiveResize=0;align=center;fontStyle=1;html=1;fontSize=10;" vertex="1" parent="W5Yc8Tz47XCsxt4rS728-238">
          <mxGeometry x="186" width="94" height="30" as="geometry">
            <mxRectangle width="94" height="30" as="alternateBounds" />
          </mxGeometry>
        </mxCell>
        <mxCell id="W5Yc8Tz47XCsxt4rS728-241" value="bank" style="connectable=0;recursiveResize=0;align=center;fontStyle=1;html=1;fontSize=10;" vertex="1" parent="W5Yc8Tz47XCsxt4rS728-238">
          <mxGeometry x="280" width="93" height="30" as="geometry">
            <mxRectangle width="93" height="30" as="alternateBounds" />
          </mxGeometry>
        </mxCell>
        <mxCell id="W5Yc8Tz47XCsxt4rS728-242" value="email_address" style="connectable=0;recursiveResize=0;align=center;fontStyle=1;html=1;fontSize=10;" vertex="1" parent="W5Yc8Tz47XCsxt4rS728-238">
          <mxGeometry x="373" width="93" height="30" as="geometry">
            <mxRectangle width="93" height="30" as="alternateBounds" />
          </mxGeometry>
        </mxCell>
        <mxCell id="W5Yc8Tz47XCsxt4rS728-243" value="balance" style="connectable=0;recursiveResize=0;align=center;fontStyle=1;html=1;fontSize=10;" vertex="1" parent="W5Yc8Tz47XCsxt4rS728-238">
          <mxGeometry x="466" width="93" height="30" as="geometry">
            <mxRectangle width="93" height="30" as="alternateBounds" />
          </mxGeometry>
        </mxCell>
        <mxCell id="W5Yc8Tz47XCsxt4rS728-245" value="" style="shape=tableRow;horizontal=0;startSize=0;swimlaneHead=0;swimlaneBody=0;top=0;left=0;bottom=0;right=0;dropTarget=0;collapsible=0;recursiveResize=0;expand=0;fontStyle=0;" vertex="1" parent="W5Yc8Tz47XCsxt4rS728-237">
          <mxGeometry y="30" width="559" height="32" as="geometry" />
        </mxCell>
        <mxCell id="W5Yc8Tz47XCsxt4rS728-246" value="Value 1" style="connectable=0;recursiveResize=0;align=center;whiteSpace=wrap;html=1;fontSize=10;" vertex="1" parent="W5Yc8Tz47XCsxt4rS728-245">
          <mxGeometry width="93" height="32" as="geometry">
            <mxRectangle width="93" height="32" as="alternateBounds" />
          </mxGeometry>
        </mxCell>
        <mxCell id="W5Yc8Tz47XCsxt4rS728-481" style="connectable=0;recursiveResize=0;align=center;whiteSpace=wrap;html=1;fontSize=10;" vertex="1" parent="W5Yc8Tz47XCsxt4rS728-245">
          <mxGeometry x="93" width="93" height="32" as="geometry">
            <mxRectangle width="93" height="32" as="alternateBounds" />
          </mxGeometry>
        </mxCell>
        <mxCell id="W5Yc8Tz47XCsxt4rS728-247" value="Value 2" style="connectable=0;recursiveResize=0;align=center;whiteSpace=wrap;html=1;fontSize=10;" vertex="1" parent="W5Yc8Tz47XCsxt4rS728-245">
          <mxGeometry x="186" width="94" height="32" as="geometry">
            <mxRectangle width="94" height="32" as="alternateBounds" />
          </mxGeometry>
        </mxCell>
        <mxCell id="W5Yc8Tz47XCsxt4rS728-248" value="Value 3" style="connectable=0;recursiveResize=0;align=center;whiteSpace=wrap;html=1;fontSize=10;" vertex="1" parent="W5Yc8Tz47XCsxt4rS728-245">
          <mxGeometry x="280" width="93" height="32" as="geometry">
            <mxRectangle width="93" height="32" as="alternateBounds" />
          </mxGeometry>
        </mxCell>
        <mxCell id="W5Yc8Tz47XCsxt4rS728-249" style="connectable=0;recursiveResize=0;align=center;whiteSpace=wrap;html=1;fontSize=10;" vertex="1" parent="W5Yc8Tz47XCsxt4rS728-245">
          <mxGeometry x="373" width="93" height="32" as="geometry">
            <mxRectangle width="93" height="32" as="alternateBounds" />
          </mxGeometry>
        </mxCell>
        <mxCell id="W5Yc8Tz47XCsxt4rS728-250" style="connectable=0;recursiveResize=0;align=center;whiteSpace=wrap;html=1;fontSize=10;" vertex="1" parent="W5Yc8Tz47XCsxt4rS728-245">
          <mxGeometry x="466" width="93" height="32" as="geometry">
            <mxRectangle width="93" height="32" as="alternateBounds" />
          </mxGeometry>
        </mxCell>
        <mxCell id="W5Yc8Tz47XCsxt4rS728-252" value="" style="shape=tableRow;horizontal=0;startSize=0;swimlaneHead=0;swimlaneBody=0;top=0;left=0;bottom=0;right=0;dropTarget=0;collapsible=0;recursiveResize=0;expand=0;fontStyle=1;" vertex="1" parent="W5Yc8Tz47XCsxt4rS728-237">
          <mxGeometry y="62" width="559" height="31" as="geometry" />
        </mxCell>
        <mxCell id="W5Yc8Tz47XCsxt4rS728-253" value="Value 4" style="connectable=0;recursiveResize=0;whiteSpace=wrap;html=1;fontSize=10;" vertex="1" parent="W5Yc8Tz47XCsxt4rS728-252">
          <mxGeometry width="93" height="31" as="geometry">
            <mxRectangle width="93" height="31" as="alternateBounds" />
          </mxGeometry>
        </mxCell>
        <mxCell id="W5Yc8Tz47XCsxt4rS728-482" style="connectable=0;recursiveResize=0;whiteSpace=wrap;html=1;fontSize=10;" vertex="1" parent="W5Yc8Tz47XCsxt4rS728-252">
          <mxGeometry x="93" width="93" height="31" as="geometry">
            <mxRectangle width="93" height="31" as="alternateBounds" />
          </mxGeometry>
        </mxCell>
        <mxCell id="W5Yc8Tz47XCsxt4rS728-254" value="Value 5" style="connectable=0;recursiveResize=0;whiteSpace=wrap;html=1;fontSize=10;" vertex="1" parent="W5Yc8Tz47XCsxt4rS728-252">
          <mxGeometry x="186" width="94" height="31" as="geometry">
            <mxRectangle width="94" height="31" as="alternateBounds" />
          </mxGeometry>
        </mxCell>
        <mxCell id="W5Yc8Tz47XCsxt4rS728-255" value="Value 6" style="connectable=0;recursiveResize=0;whiteSpace=wrap;html=1;fontSize=10;" vertex="1" parent="W5Yc8Tz47XCsxt4rS728-252">
          <mxGeometry x="280" width="93" height="31" as="geometry">
            <mxRectangle width="93" height="31" as="alternateBounds" />
          </mxGeometry>
        </mxCell>
        <mxCell id="W5Yc8Tz47XCsxt4rS728-256" style="connectable=0;recursiveResize=0;whiteSpace=wrap;html=1;fontSize=10;" vertex="1" parent="W5Yc8Tz47XCsxt4rS728-252">
          <mxGeometry x="373" width="93" height="31" as="geometry">
            <mxRectangle width="93" height="31" as="alternateBounds" />
          </mxGeometry>
        </mxCell>
        <mxCell id="W5Yc8Tz47XCsxt4rS728-257" style="connectable=0;recursiveResize=0;whiteSpace=wrap;html=1;fontSize=10;" vertex="1" parent="W5Yc8Tz47XCsxt4rS728-252">
          <mxGeometry x="466" width="93" height="31" as="geometry">
            <mxRectangle width="93" height="31" as="alternateBounds" />
          </mxGeometry>
        </mxCell>
        <mxCell id="W5Yc8Tz47XCsxt4rS728-259" value="" style="shape=tableRow;horizontal=0;startSize=0;swimlaneHead=0;swimlaneBody=0;top=0;left=0;bottom=0;right=0;dropTarget=0;collapsible=0;recursiveResize=0;expand=0;fontStyle=0;" vertex="1" parent="W5Yc8Tz47XCsxt4rS728-237">
          <mxGeometry y="93" width="559" height="33" as="geometry" />
        </mxCell>
        <mxCell id="W5Yc8Tz47XCsxt4rS728-260" value="Value 7" style="connectable=0;recursiveResize=0;fontStyle=0;align=center;whiteSpace=wrap;html=1;fontSize=10;" vertex="1" parent="W5Yc8Tz47XCsxt4rS728-259">
          <mxGeometry width="93" height="33" as="geometry">
            <mxRectangle width="93" height="33" as="alternateBounds" />
          </mxGeometry>
        </mxCell>
        <mxCell id="W5Yc8Tz47XCsxt4rS728-483" style="connectable=0;recursiveResize=0;fontStyle=0;align=center;whiteSpace=wrap;html=1;fontSize=10;" vertex="1" parent="W5Yc8Tz47XCsxt4rS728-259">
          <mxGeometry x="93" width="93" height="33" as="geometry">
            <mxRectangle width="93" height="33" as="alternateBounds" />
          </mxGeometry>
        </mxCell>
        <mxCell id="W5Yc8Tz47XCsxt4rS728-261" value="Value 8" style="connectable=0;recursiveResize=0;fontStyle=0;align=center;whiteSpace=wrap;html=1;fontSize=10;" vertex="1" parent="W5Yc8Tz47XCsxt4rS728-259">
          <mxGeometry x="186" width="94" height="33" as="geometry">
            <mxRectangle width="94" height="33" as="alternateBounds" />
          </mxGeometry>
        </mxCell>
        <mxCell id="W5Yc8Tz47XCsxt4rS728-262" value="Value 9" style="connectable=0;recursiveResize=0;fontStyle=0;align=center;whiteSpace=wrap;html=1;fontSize=10;" vertex="1" parent="W5Yc8Tz47XCsxt4rS728-259">
          <mxGeometry x="280" width="93" height="33" as="geometry">
            <mxRectangle width="93" height="33" as="alternateBounds" />
          </mxGeometry>
        </mxCell>
        <mxCell id="W5Yc8Tz47XCsxt4rS728-263" style="connectable=0;recursiveResize=0;fontStyle=0;align=center;whiteSpace=wrap;html=1;fontSize=10;" vertex="1" parent="W5Yc8Tz47XCsxt4rS728-259">
          <mxGeometry x="373" width="93" height="33" as="geometry">
            <mxRectangle width="93" height="33" as="alternateBounds" />
          </mxGeometry>
        </mxCell>
        <mxCell id="W5Yc8Tz47XCsxt4rS728-264" style="connectable=0;recursiveResize=0;fontStyle=0;align=center;whiteSpace=wrap;html=1;fontSize=10;" vertex="1" parent="W5Yc8Tz47XCsxt4rS728-259">
          <mxGeometry x="466" width="93" height="33" as="geometry">
            <mxRectangle width="93" height="33" as="alternateBounds" />
          </mxGeometry>
        </mxCell>
        <mxCell id="W5Yc8Tz47XCsxt4rS728-270" value="email_address" style="ellipse;whiteSpace=wrap;html=1;align=center;" vertex="1" parent="1">
          <mxGeometry x="330" y="590" width="100" height="40" as="geometry" />
        </mxCell>
        <mxCell id="W5Yc8Tz47XCsxt4rS728-271" value="" style="endArrow=none;html=1;rounded=0;exitX=1;exitY=1;exitDx=0;exitDy=0;entryX=0.26;entryY=0.082;entryDx=0;entryDy=0;entryPerimeter=0;" edge="1" parent="1" source="KtNkentMnjNg2-EnF80v-228" target="W5Yc8Tz47XCsxt4rS728-270">
          <mxGeometry relative="1" as="geometry">
            <mxPoint x="334.5" y="560" as="sourcePoint" />
            <mxPoint x="334.5" y="600" as="targetPoint" />
          </mxGeometry>
        </mxCell>
        <mxCell id="W5Yc8Tz47XCsxt4rS728-272" value="email_address" style="ellipse;whiteSpace=wrap;html=1;align=center;" vertex="1" parent="1">
          <mxGeometry x="670" y="470" width="100" height="40" as="geometry" />
        </mxCell>
        <mxCell id="W5Yc8Tz47XCsxt4rS728-273" value="" style="endArrow=none;html=1;rounded=0;" edge="1" parent="1" source="KtNkentMnjNg2-EnF80v-227" target="W5Yc8Tz47XCsxt4rS728-272">
          <mxGeometry relative="1" as="geometry">
            <mxPoint x="710" y="560" as="sourcePoint" />
            <mxPoint x="750" y="560" as="targetPoint" />
          </mxGeometry>
        </mxCell>
        <mxCell id="W5Yc8Tz47XCsxt4rS728-296" value="1 N" style="text;strokeColor=none;fillColor=none;html=1;fontSize=24;fontStyle=1;verticalAlign=middle;align=center;" vertex="1" parent="1">
          <mxGeometry x="560" y="1200" width="100" height="40" as="geometry" />
        </mxCell>
        <mxCell id="W5Yc8Tz47XCsxt4rS728-297" value="2N" style="text;strokeColor=none;fillColor=none;html=1;fontSize=24;fontStyle=1;verticalAlign=middle;align=center;" vertex="1" parent="1">
          <mxGeometry x="560" y="1430" width="100" height="40" as="geometry" />
        </mxCell>
        <mxCell id="W5Yc8Tz47XCsxt4rS728-302" value="" style="group" vertex="1" connectable="0" parent="1">
          <mxGeometry x="170" y="1680" width="10" as="geometry" />
        </mxCell>
        <mxCell id="W5Yc8Tz47XCsxt4rS728-303" value="" style="group" vertex="1" connectable="0" parent="W5Yc8Tz47XCsxt4rS728-302">
          <mxGeometry width="10" as="geometry" />
        </mxCell>
        <mxCell id="W5Yc8Tz47XCsxt4rS728-298" value="" style="edgeStyle=elbowEdgeStyle;elbow=vertical;endArrow=classic;html=1;curved=0;rounded=0;endSize=8;startSize=8;exitX=0.032;exitY=0.025;exitDx=0;exitDy=0;exitPerimeter=0;" edge="1" parent="W5Yc8Tz47XCsxt4rS728-303" source="W5Yc8Tz47XCsxt4rS728-238">
          <mxGeometry width="50" height="50" relative="1" as="geometry">
            <mxPoint x="-60" y="70" as="sourcePoint" />
            <mxPoint x="10" y="-60" as="targetPoint" />
            <Array as="points">
              <mxPoint />
            </Array>
          </mxGeometry>
        </mxCell>
        <mxCell id="W5Yc8Tz47XCsxt4rS728-301" value="" style="edgeStyle=segmentEdgeStyle;endArrow=classic;html=1;curved=0;rounded=0;endSize=8;startSize=8;" edge="1" parent="W5Yc8Tz47XCsxt4rS728-303">
          <mxGeometry width="50" height="50" relative="1" as="geometry">
            <mxPoint x="10" as="sourcePoint" />
            <mxPoint x="90" y="-60" as="targetPoint" />
          </mxGeometry>
        </mxCell>
        <mxCell id="W5Yc8Tz47XCsxt4rS728-304" value="Assets" style="childLayout=tableLayout;recursiveResize=0;shadow=1;fontSize=7;" vertex="1" parent="1">
          <mxGeometry x="125" y="2490" width="651" height="126" as="geometry" />
        </mxCell>
        <mxCell id="W5Yc8Tz47XCsxt4rS728-305" style="shape=tableRow;horizontal=0;startSize=0;swimlaneHead=0;swimlaneBody=0;top=0;left=0;bottom=0;right=0;dropTarget=0;collapsible=0;recursiveResize=0;expand=0;fontStyle=0;" vertex="1" parent="W5Yc8Tz47XCsxt4rS728-304">
          <mxGeometry width="651" height="30" as="geometry" />
        </mxCell>
        <mxCell id="W5Yc8Tz47XCsxt4rS728-306" value="NIK" style="connectable=0;recursiveResize=0;align=center;fontStyle=1;html=1;fontSize=10;" vertex="1" parent="W5Yc8Tz47XCsxt4rS728-305">
          <mxGeometry width="93" height="30" as="geometry">
            <mxRectangle width="93" height="30" as="alternateBounds" />
          </mxGeometry>
        </mxCell>
        <mxCell id="W5Yc8Tz47XCsxt4rS728-308" value="name" style="connectable=0;recursiveResize=0;align=center;fontStyle=1;html=1;fontSize=10;" vertex="1" parent="W5Yc8Tz47XCsxt4rS728-305">
          <mxGeometry x="93" width="93" height="30" as="geometry">
            <mxRectangle width="93" height="30" as="alternateBounds" />
          </mxGeometry>
        </mxCell>
        <mxCell id="W5Yc8Tz47XCsxt4rS728-309" value="address" style="connectable=0;recursiveResize=0;align=center;fontStyle=1;html=1;fontSize=10;" vertex="1" parent="W5Yc8Tz47XCsxt4rS728-305">
          <mxGeometry x="186" width="93" height="30" as="geometry">
            <mxRectangle width="93" height="30" as="alternateBounds" />
          </mxGeometry>
        </mxCell>
        <mxCell id="W5Yc8Tz47XCsxt4rS728-310" value="email_address" style="connectable=0;recursiveResize=0;align=center;fontStyle=1;html=1;fontSize=10;" vertex="1" parent="W5Yc8Tz47XCsxt4rS728-305">
          <mxGeometry x="279" width="93" height="30" as="geometry">
            <mxRectangle width="93" height="30" as="alternateBounds" />
          </mxGeometry>
        </mxCell>
        <mxCell id="W5Yc8Tz47XCsxt4rS728-340" value="phone_number" style="connectable=0;recursiveResize=0;align=center;fontStyle=1;html=1;fontSize=10;" vertex="1" parent="W5Yc8Tz47XCsxt4rS728-305">
          <mxGeometry x="372" width="93" height="30" as="geometry">
            <mxRectangle width="93" height="30" as="alternateBounds" />
          </mxGeometry>
        </mxCell>
        <mxCell id="W5Yc8Tz47XCsxt4rS728-344" value="date_of_birth" style="connectable=0;recursiveResize=0;align=center;fontStyle=1;html=1;fontSize=10;" vertex="1" parent="W5Yc8Tz47XCsxt4rS728-305">
          <mxGeometry x="465" width="93" height="30" as="geometry">
            <mxRectangle width="93" height="30" as="alternateBounds" />
          </mxGeometry>
        </mxCell>
        <mxCell id="W5Yc8Tz47XCsxt4rS728-348" value="age" style="connectable=0;recursiveResize=0;align=center;fontStyle=1;html=1;fontSize=10;" vertex="1" parent="W5Yc8Tz47XCsxt4rS728-305">
          <mxGeometry x="558" width="93" height="30" as="geometry">
            <mxRectangle width="93" height="30" as="alternateBounds" />
          </mxGeometry>
        </mxCell>
        <mxCell id="W5Yc8Tz47XCsxt4rS728-311" value="" style="shape=tableRow;horizontal=0;startSize=0;swimlaneHead=0;swimlaneBody=0;top=0;left=0;bottom=0;right=0;dropTarget=0;collapsible=0;recursiveResize=0;expand=0;fontStyle=0;" vertex="1" parent="W5Yc8Tz47XCsxt4rS728-304">
          <mxGeometry y="30" width="651" height="32" as="geometry" />
        </mxCell>
        <mxCell id="W5Yc8Tz47XCsxt4rS728-312" value="Value 1" style="connectable=0;recursiveResize=0;align=center;whiteSpace=wrap;html=1;fontSize=10;" vertex="1" parent="W5Yc8Tz47XCsxt4rS728-311">
          <mxGeometry width="93" height="32" as="geometry">
            <mxRectangle width="93" height="32" as="alternateBounds" />
          </mxGeometry>
        </mxCell>
        <mxCell id="W5Yc8Tz47XCsxt4rS728-314" value="Value 3" style="connectable=0;recursiveResize=0;align=center;whiteSpace=wrap;html=1;fontSize=10;" vertex="1" parent="W5Yc8Tz47XCsxt4rS728-311">
          <mxGeometry x="93" width="93" height="32" as="geometry">
            <mxRectangle width="93" height="32" as="alternateBounds" />
          </mxGeometry>
        </mxCell>
        <mxCell id="W5Yc8Tz47XCsxt4rS728-315" style="connectable=0;recursiveResize=0;align=center;whiteSpace=wrap;html=1;fontSize=10;" vertex="1" parent="W5Yc8Tz47XCsxt4rS728-311">
          <mxGeometry x="186" width="93" height="32" as="geometry">
            <mxRectangle width="93" height="32" as="alternateBounds" />
          </mxGeometry>
        </mxCell>
        <mxCell id="W5Yc8Tz47XCsxt4rS728-316" style="connectable=0;recursiveResize=0;align=center;whiteSpace=wrap;html=1;fontSize=10;" vertex="1" parent="W5Yc8Tz47XCsxt4rS728-311">
          <mxGeometry x="279" width="93" height="32" as="geometry">
            <mxRectangle width="93" height="32" as="alternateBounds" />
          </mxGeometry>
        </mxCell>
        <mxCell id="W5Yc8Tz47XCsxt4rS728-341" style="connectable=0;recursiveResize=0;align=center;whiteSpace=wrap;html=1;fontSize=10;" vertex="1" parent="W5Yc8Tz47XCsxt4rS728-311">
          <mxGeometry x="372" width="93" height="32" as="geometry">
            <mxRectangle width="93" height="32" as="alternateBounds" />
          </mxGeometry>
        </mxCell>
        <mxCell id="W5Yc8Tz47XCsxt4rS728-345" style="connectable=0;recursiveResize=0;align=center;whiteSpace=wrap;html=1;fontSize=10;" vertex="1" parent="W5Yc8Tz47XCsxt4rS728-311">
          <mxGeometry x="465" width="93" height="32" as="geometry">
            <mxRectangle width="93" height="32" as="alternateBounds" />
          </mxGeometry>
        </mxCell>
        <mxCell id="W5Yc8Tz47XCsxt4rS728-349" style="connectable=0;recursiveResize=0;align=center;whiteSpace=wrap;html=1;fontSize=10;" vertex="1" parent="W5Yc8Tz47XCsxt4rS728-311">
          <mxGeometry x="558" width="93" height="32" as="geometry">
            <mxRectangle width="93" height="32" as="alternateBounds" />
          </mxGeometry>
        </mxCell>
        <mxCell id="W5Yc8Tz47XCsxt4rS728-317" value="" style="shape=tableRow;horizontal=0;startSize=0;swimlaneHead=0;swimlaneBody=0;top=0;left=0;bottom=0;right=0;dropTarget=0;collapsible=0;recursiveResize=0;expand=0;fontStyle=1;" vertex="1" parent="W5Yc8Tz47XCsxt4rS728-304">
          <mxGeometry y="62" width="651" height="31" as="geometry" />
        </mxCell>
        <mxCell id="W5Yc8Tz47XCsxt4rS728-318" value="Value 4" style="connectable=0;recursiveResize=0;whiteSpace=wrap;html=1;fontSize=10;" vertex="1" parent="W5Yc8Tz47XCsxt4rS728-317">
          <mxGeometry width="93" height="31" as="geometry">
            <mxRectangle width="93" height="31" as="alternateBounds" />
          </mxGeometry>
        </mxCell>
        <mxCell id="W5Yc8Tz47XCsxt4rS728-320" value="Value 6" style="connectable=0;recursiveResize=0;whiteSpace=wrap;html=1;fontSize=10;" vertex="1" parent="W5Yc8Tz47XCsxt4rS728-317">
          <mxGeometry x="93" width="93" height="31" as="geometry">
            <mxRectangle width="93" height="31" as="alternateBounds" />
          </mxGeometry>
        </mxCell>
        <mxCell id="W5Yc8Tz47XCsxt4rS728-321" style="connectable=0;recursiveResize=0;whiteSpace=wrap;html=1;fontSize=10;" vertex="1" parent="W5Yc8Tz47XCsxt4rS728-317">
          <mxGeometry x="186" width="93" height="31" as="geometry">
            <mxRectangle width="93" height="31" as="alternateBounds" />
          </mxGeometry>
        </mxCell>
        <mxCell id="W5Yc8Tz47XCsxt4rS728-322" style="connectable=0;recursiveResize=0;whiteSpace=wrap;html=1;fontSize=10;" vertex="1" parent="W5Yc8Tz47XCsxt4rS728-317">
          <mxGeometry x="279" width="93" height="31" as="geometry">
            <mxRectangle width="93" height="31" as="alternateBounds" />
          </mxGeometry>
        </mxCell>
        <mxCell id="W5Yc8Tz47XCsxt4rS728-342" style="connectable=0;recursiveResize=0;whiteSpace=wrap;html=1;fontSize=10;" vertex="1" parent="W5Yc8Tz47XCsxt4rS728-317">
          <mxGeometry x="372" width="93" height="31" as="geometry">
            <mxRectangle width="93" height="31" as="alternateBounds" />
          </mxGeometry>
        </mxCell>
        <mxCell id="W5Yc8Tz47XCsxt4rS728-346" style="connectable=0;recursiveResize=0;whiteSpace=wrap;html=1;fontSize=10;" vertex="1" parent="W5Yc8Tz47XCsxt4rS728-317">
          <mxGeometry x="465" width="93" height="31" as="geometry">
            <mxRectangle width="93" height="31" as="alternateBounds" />
          </mxGeometry>
        </mxCell>
        <mxCell id="W5Yc8Tz47XCsxt4rS728-350" style="connectable=0;recursiveResize=0;whiteSpace=wrap;html=1;fontSize=10;" vertex="1" parent="W5Yc8Tz47XCsxt4rS728-317">
          <mxGeometry x="558" width="93" height="31" as="geometry">
            <mxRectangle width="93" height="31" as="alternateBounds" />
          </mxGeometry>
        </mxCell>
        <mxCell id="W5Yc8Tz47XCsxt4rS728-323" value="" style="shape=tableRow;horizontal=0;startSize=0;swimlaneHead=0;swimlaneBody=0;top=0;left=0;bottom=0;right=0;dropTarget=0;collapsible=0;recursiveResize=0;expand=0;fontStyle=0;" vertex="1" parent="W5Yc8Tz47XCsxt4rS728-304">
          <mxGeometry y="93" width="651" height="33" as="geometry" />
        </mxCell>
        <mxCell id="W5Yc8Tz47XCsxt4rS728-324" value="Value 7" style="connectable=0;recursiveResize=0;fontStyle=0;align=center;whiteSpace=wrap;html=1;fontSize=10;" vertex="1" parent="W5Yc8Tz47XCsxt4rS728-323">
          <mxGeometry width="93" height="33" as="geometry">
            <mxRectangle width="93" height="33" as="alternateBounds" />
          </mxGeometry>
        </mxCell>
        <mxCell id="W5Yc8Tz47XCsxt4rS728-326" value="Value 9" style="connectable=0;recursiveResize=0;fontStyle=0;align=center;whiteSpace=wrap;html=1;fontSize=10;" vertex="1" parent="W5Yc8Tz47XCsxt4rS728-323">
          <mxGeometry x="93" width="93" height="33" as="geometry">
            <mxRectangle width="93" height="33" as="alternateBounds" />
          </mxGeometry>
        </mxCell>
        <mxCell id="W5Yc8Tz47XCsxt4rS728-327" style="connectable=0;recursiveResize=0;fontStyle=0;align=center;whiteSpace=wrap;html=1;fontSize=10;" vertex="1" parent="W5Yc8Tz47XCsxt4rS728-323">
          <mxGeometry x="186" width="93" height="33" as="geometry">
            <mxRectangle width="93" height="33" as="alternateBounds" />
          </mxGeometry>
        </mxCell>
        <mxCell id="W5Yc8Tz47XCsxt4rS728-328" style="connectable=0;recursiveResize=0;fontStyle=0;align=center;whiteSpace=wrap;html=1;fontSize=10;" vertex="1" parent="W5Yc8Tz47XCsxt4rS728-323">
          <mxGeometry x="279" width="93" height="33" as="geometry">
            <mxRectangle width="93" height="33" as="alternateBounds" />
          </mxGeometry>
        </mxCell>
        <mxCell id="W5Yc8Tz47XCsxt4rS728-343" style="connectable=0;recursiveResize=0;fontStyle=0;align=center;whiteSpace=wrap;html=1;fontSize=10;" vertex="1" parent="W5Yc8Tz47XCsxt4rS728-323">
          <mxGeometry x="372" width="93" height="33" as="geometry">
            <mxRectangle width="93" height="33" as="alternateBounds" />
          </mxGeometry>
        </mxCell>
        <mxCell id="W5Yc8Tz47XCsxt4rS728-347" style="connectable=0;recursiveResize=0;fontStyle=0;align=center;whiteSpace=wrap;html=1;fontSize=10;" vertex="1" parent="W5Yc8Tz47XCsxt4rS728-323">
          <mxGeometry x="465" width="93" height="33" as="geometry">
            <mxRectangle width="93" height="33" as="alternateBounds" />
          </mxGeometry>
        </mxCell>
        <mxCell id="W5Yc8Tz47XCsxt4rS728-351" style="connectable=0;recursiveResize=0;fontStyle=0;align=center;whiteSpace=wrap;html=1;fontSize=10;" vertex="1" parent="W5Yc8Tz47XCsxt4rS728-323">
          <mxGeometry x="558" width="93" height="33" as="geometry">
            <mxRectangle width="93" height="33" as="alternateBounds" />
          </mxGeometry>
        </mxCell>
        <mxCell id="W5Yc8Tz47XCsxt4rS728-337" value="" style="endArrow=none;html=1;rounded=0;exitX=0.398;exitY=0.988;exitDx=0;exitDy=0;exitPerimeter=0;" edge="1" parent="1" source="KtNkentMnjNg2-EnF80v-228" target="KtNkentMnjNg2-EnF80v-248">
          <mxGeometry relative="1" as="geometry">
            <mxPoint x="430" y="550" as="sourcePoint" />
            <mxPoint x="268.51" y="618.28" as="targetPoint" />
          </mxGeometry>
        </mxCell>
        <mxCell id="W5Yc8Tz47XCsxt4rS728-339" value="3N" style="text;strokeColor=none;fillColor=none;html=1;fontSize=24;fontStyle=1;verticalAlign=middle;align=center;" vertex="1" parent="1">
          <mxGeometry x="560" y="1950" width="100" height="40" as="geometry" />
        </mxCell>
        <mxCell id="W5Yc8Tz47XCsxt4rS728-410" value="Assets" style="childLayout=tableLayout;recursiveResize=0;shadow=1;fontSize=7;" vertex="1" parent="1">
          <mxGeometry x="77.5" y="2030" width="559" height="129" as="geometry" />
        </mxCell>
        <mxCell id="W5Yc8Tz47XCsxt4rS728-411" style="shape=tableRow;horizontal=0;startSize=0;swimlaneHead=0;swimlaneBody=0;top=0;left=0;bottom=0;right=0;dropTarget=0;collapsible=0;recursiveResize=0;expand=0;fontStyle=0;" vertex="1" parent="W5Yc8Tz47XCsxt4rS728-410">
          <mxGeometry width="559" height="33" as="geometry" />
        </mxCell>
        <mxCell id="W5Yc8Tz47XCsxt4rS728-412" value="transaction_id" style="connectable=0;recursiveResize=0;align=center;fontStyle=1;html=1;fontSize=10;" vertex="1" parent="W5Yc8Tz47XCsxt4rS728-411">
          <mxGeometry width="93" height="33" as="geometry">
            <mxRectangle width="93" height="33" as="alternateBounds" />
          </mxGeometry>
        </mxCell>
        <mxCell id="W5Yc8Tz47XCsxt4rS728-413" value="senderAcc_num" style="connectable=0;recursiveResize=0;align=center;fontStyle=1;html=1;fontSize=10;" vertex="1" parent="W5Yc8Tz47XCsxt4rS728-411">
          <mxGeometry x="93" width="94" height="33" as="geometry">
            <mxRectangle width="94" height="33" as="alternateBounds" />
          </mxGeometry>
        </mxCell>
        <mxCell id="W5Yc8Tz47XCsxt4rS728-414" value="receiverAcc_num" style="connectable=0;recursiveResize=0;align=center;fontStyle=1;html=1;fontSize=10;" vertex="1" parent="W5Yc8Tz47XCsxt4rS728-411">
          <mxGeometry x="187" width="93" height="33" as="geometry">
            <mxRectangle width="93" height="33" as="alternateBounds" />
          </mxGeometry>
        </mxCell>
        <mxCell id="W5Yc8Tz47XCsxt4rS728-415" value="date" style="connectable=0;recursiveResize=0;align=center;fontStyle=1;html=1;fontSize=10;" vertex="1" parent="W5Yc8Tz47XCsxt4rS728-411">
          <mxGeometry x="280" width="93" height="33" as="geometry">
            <mxRectangle width="93" height="33" as="alternateBounds" />
          </mxGeometry>
        </mxCell>
        <mxCell id="W5Yc8Tz47XCsxt4rS728-416" value="time" style="connectable=0;recursiveResize=0;align=center;fontStyle=1;html=1;fontSize=10;" vertex="1" parent="W5Yc8Tz47XCsxt4rS728-411">
          <mxGeometry x="373" width="93" height="33" as="geometry">
            <mxRectangle width="93" height="33" as="alternateBounds" />
          </mxGeometry>
        </mxCell>
        <mxCell id="W5Yc8Tz47XCsxt4rS728-417" value="nominal" style="connectable=0;recursiveResize=0;align=center;fontStyle=1;html=1;fontSize=10;" vertex="1" parent="W5Yc8Tz47XCsxt4rS728-411">
          <mxGeometry x="466" width="93" height="33" as="geometry">
            <mxRectangle width="93" height="33" as="alternateBounds" />
          </mxGeometry>
        </mxCell>
        <mxCell id="W5Yc8Tz47XCsxt4rS728-418" value="" style="shape=tableRow;horizontal=0;startSize=0;swimlaneHead=0;swimlaneBody=0;top=0;left=0;bottom=0;right=0;dropTarget=0;collapsible=0;recursiveResize=0;expand=0;fontStyle=0;" vertex="1" parent="W5Yc8Tz47XCsxt4rS728-410">
          <mxGeometry y="33" width="559" height="32" as="geometry" />
        </mxCell>
        <mxCell id="W5Yc8Tz47XCsxt4rS728-419" value="Value 1" style="connectable=0;recursiveResize=0;align=center;whiteSpace=wrap;html=1;fontSize=10;" vertex="1" parent="W5Yc8Tz47XCsxt4rS728-418">
          <mxGeometry width="93" height="32" as="geometry">
            <mxRectangle width="93" height="32" as="alternateBounds" />
          </mxGeometry>
        </mxCell>
        <mxCell id="W5Yc8Tz47XCsxt4rS728-420" value="Value 2" style="connectable=0;recursiveResize=0;align=center;whiteSpace=wrap;html=1;fontSize=10;" vertex="1" parent="W5Yc8Tz47XCsxt4rS728-418">
          <mxGeometry x="93" width="94" height="32" as="geometry">
            <mxRectangle width="94" height="32" as="alternateBounds" />
          </mxGeometry>
        </mxCell>
        <mxCell id="W5Yc8Tz47XCsxt4rS728-421" value="Value 3" style="connectable=0;recursiveResize=0;align=center;whiteSpace=wrap;html=1;fontSize=10;" vertex="1" parent="W5Yc8Tz47XCsxt4rS728-418">
          <mxGeometry x="187" width="93" height="32" as="geometry">
            <mxRectangle width="93" height="32" as="alternateBounds" />
          </mxGeometry>
        </mxCell>
        <mxCell id="W5Yc8Tz47XCsxt4rS728-422" style="connectable=0;recursiveResize=0;align=center;whiteSpace=wrap;html=1;fontSize=10;" vertex="1" parent="W5Yc8Tz47XCsxt4rS728-418">
          <mxGeometry x="280" width="93" height="32" as="geometry">
            <mxRectangle width="93" height="32" as="alternateBounds" />
          </mxGeometry>
        </mxCell>
        <mxCell id="W5Yc8Tz47XCsxt4rS728-423" style="connectable=0;recursiveResize=0;align=center;whiteSpace=wrap;html=1;fontSize=10;" vertex="1" parent="W5Yc8Tz47XCsxt4rS728-418">
          <mxGeometry x="373" width="93" height="32" as="geometry">
            <mxRectangle width="93" height="32" as="alternateBounds" />
          </mxGeometry>
        </mxCell>
        <mxCell id="W5Yc8Tz47XCsxt4rS728-424" style="connectable=0;recursiveResize=0;align=center;whiteSpace=wrap;html=1;fontSize=10;" vertex="1" parent="W5Yc8Tz47XCsxt4rS728-418">
          <mxGeometry x="466" width="93" height="32" as="geometry">
            <mxRectangle width="93" height="32" as="alternateBounds" />
          </mxGeometry>
        </mxCell>
        <mxCell id="W5Yc8Tz47XCsxt4rS728-425" value="" style="shape=tableRow;horizontal=0;startSize=0;swimlaneHead=0;swimlaneBody=0;top=0;left=0;bottom=0;right=0;dropTarget=0;collapsible=0;recursiveResize=0;expand=0;fontStyle=1;" vertex="1" parent="W5Yc8Tz47XCsxt4rS728-410">
          <mxGeometry y="65" width="559" height="31" as="geometry" />
        </mxCell>
        <mxCell id="W5Yc8Tz47XCsxt4rS728-426" value="Value 4" style="connectable=0;recursiveResize=0;whiteSpace=wrap;html=1;fontSize=10;" vertex="1" parent="W5Yc8Tz47XCsxt4rS728-425">
          <mxGeometry width="93" height="31" as="geometry">
            <mxRectangle width="93" height="31" as="alternateBounds" />
          </mxGeometry>
        </mxCell>
        <mxCell id="W5Yc8Tz47XCsxt4rS728-427" value="Value 5" style="connectable=0;recursiveResize=0;whiteSpace=wrap;html=1;fontSize=10;" vertex="1" parent="W5Yc8Tz47XCsxt4rS728-425">
          <mxGeometry x="93" width="94" height="31" as="geometry">
            <mxRectangle width="94" height="31" as="alternateBounds" />
          </mxGeometry>
        </mxCell>
        <mxCell id="W5Yc8Tz47XCsxt4rS728-428" value="Value 6" style="connectable=0;recursiveResize=0;whiteSpace=wrap;html=1;fontSize=10;" vertex="1" parent="W5Yc8Tz47XCsxt4rS728-425">
          <mxGeometry x="187" width="93" height="31" as="geometry">
            <mxRectangle width="93" height="31" as="alternateBounds" />
          </mxGeometry>
        </mxCell>
        <mxCell id="W5Yc8Tz47XCsxt4rS728-429" style="connectable=0;recursiveResize=0;whiteSpace=wrap;html=1;fontSize=10;" vertex="1" parent="W5Yc8Tz47XCsxt4rS728-425">
          <mxGeometry x="280" width="93" height="31" as="geometry">
            <mxRectangle width="93" height="31" as="alternateBounds" />
          </mxGeometry>
        </mxCell>
        <mxCell id="W5Yc8Tz47XCsxt4rS728-430" style="connectable=0;recursiveResize=0;whiteSpace=wrap;html=1;fontSize=10;" vertex="1" parent="W5Yc8Tz47XCsxt4rS728-425">
          <mxGeometry x="373" width="93" height="31" as="geometry">
            <mxRectangle width="93" height="31" as="alternateBounds" />
          </mxGeometry>
        </mxCell>
        <mxCell id="W5Yc8Tz47XCsxt4rS728-431" style="connectable=0;recursiveResize=0;whiteSpace=wrap;html=1;fontSize=10;" vertex="1" parent="W5Yc8Tz47XCsxt4rS728-425">
          <mxGeometry x="466" width="93" height="31" as="geometry">
            <mxRectangle width="93" height="31" as="alternateBounds" />
          </mxGeometry>
        </mxCell>
        <mxCell id="W5Yc8Tz47XCsxt4rS728-432" value="" style="shape=tableRow;horizontal=0;startSize=0;swimlaneHead=0;swimlaneBody=0;top=0;left=0;bottom=0;right=0;dropTarget=0;collapsible=0;recursiveResize=0;expand=0;fontStyle=0;" vertex="1" parent="W5Yc8Tz47XCsxt4rS728-410">
          <mxGeometry y="96" width="559" height="33" as="geometry" />
        </mxCell>
        <mxCell id="W5Yc8Tz47XCsxt4rS728-433" value="Value 7" style="connectable=0;recursiveResize=0;fontStyle=0;align=center;whiteSpace=wrap;html=1;fontSize=10;" vertex="1" parent="W5Yc8Tz47XCsxt4rS728-432">
          <mxGeometry width="93" height="33" as="geometry">
            <mxRectangle width="93" height="33" as="alternateBounds" />
          </mxGeometry>
        </mxCell>
        <mxCell id="W5Yc8Tz47XCsxt4rS728-434" value="Value 8" style="connectable=0;recursiveResize=0;fontStyle=0;align=center;whiteSpace=wrap;html=1;fontSize=10;" vertex="1" parent="W5Yc8Tz47XCsxt4rS728-432">
          <mxGeometry x="93" width="94" height="33" as="geometry">
            <mxRectangle width="94" height="33" as="alternateBounds" />
          </mxGeometry>
        </mxCell>
        <mxCell id="W5Yc8Tz47XCsxt4rS728-435" value="Value 9" style="connectable=0;recursiveResize=0;fontStyle=0;align=center;whiteSpace=wrap;html=1;fontSize=10;" vertex="1" parent="W5Yc8Tz47XCsxt4rS728-432">
          <mxGeometry x="187" width="93" height="33" as="geometry">
            <mxRectangle width="93" height="33" as="alternateBounds" />
          </mxGeometry>
        </mxCell>
        <mxCell id="W5Yc8Tz47XCsxt4rS728-436" style="connectable=0;recursiveResize=0;fontStyle=0;align=center;whiteSpace=wrap;html=1;fontSize=10;" vertex="1" parent="W5Yc8Tz47XCsxt4rS728-432">
          <mxGeometry x="280" width="93" height="33" as="geometry">
            <mxRectangle width="93" height="33" as="alternateBounds" />
          </mxGeometry>
        </mxCell>
        <mxCell id="W5Yc8Tz47XCsxt4rS728-437" style="connectable=0;recursiveResize=0;fontStyle=0;align=center;whiteSpace=wrap;html=1;fontSize=10;" vertex="1" parent="W5Yc8Tz47XCsxt4rS728-432">
          <mxGeometry x="373" width="93" height="33" as="geometry">
            <mxRectangle width="93" height="33" as="alternateBounds" />
          </mxGeometry>
        </mxCell>
        <mxCell id="W5Yc8Tz47XCsxt4rS728-438" style="connectable=0;recursiveResize=0;fontStyle=0;align=center;whiteSpace=wrap;html=1;fontSize=10;" vertex="1" parent="W5Yc8Tz47XCsxt4rS728-432">
          <mxGeometry x="466" width="93" height="33" as="geometry">
            <mxRectangle width="93" height="33" as="alternateBounds" />
          </mxGeometry>
        </mxCell>
        <mxCell id="W5Yc8Tz47XCsxt4rS728-439" value="Assets" style="childLayout=tableLayout;recursiveResize=0;shadow=1;fontSize=7;" vertex="1" parent="1">
          <mxGeometry x="124" y="2270" width="559" height="126" as="geometry" />
        </mxCell>
        <mxCell id="W5Yc8Tz47XCsxt4rS728-440" style="shape=tableRow;horizontal=0;startSize=0;swimlaneHead=0;swimlaneBody=0;top=0;left=0;bottom=0;right=0;dropTarget=0;collapsible=0;recursiveResize=0;expand=0;fontStyle=0;" vertex="1" parent="W5Yc8Tz47XCsxt4rS728-439">
          <mxGeometry width="559" height="30" as="geometry" />
        </mxCell>
        <mxCell id="W5Yc8Tz47XCsxt4rS728-441" value="account_number" style="connectable=0;recursiveResize=0;align=center;fontStyle=1;html=1;fontSize=10;" vertex="1" parent="W5Yc8Tz47XCsxt4rS728-440">
          <mxGeometry width="93" height="30" as="geometry">
            <mxRectangle width="93" height="30" as="alternateBounds" />
          </mxGeometry>
        </mxCell>
        <mxCell id="W5Yc8Tz47XCsxt4rS728-476" value="NIK" style="connectable=0;recursiveResize=0;align=center;fontStyle=1;html=1;fontSize=10;" vertex="1" parent="W5Yc8Tz47XCsxt4rS728-440">
          <mxGeometry x="93" width="93" height="30" as="geometry">
            <mxRectangle width="93" height="30" as="alternateBounds" />
          </mxGeometry>
        </mxCell>
        <mxCell id="W5Yc8Tz47XCsxt4rS728-442" value="username" style="connectable=0;recursiveResize=0;align=center;fontStyle=1;html=1;fontSize=10;" vertex="1" parent="W5Yc8Tz47XCsxt4rS728-440">
          <mxGeometry x="186" width="94" height="30" as="geometry">
            <mxRectangle width="94" height="30" as="alternateBounds" />
          </mxGeometry>
        </mxCell>
        <mxCell id="W5Yc8Tz47XCsxt4rS728-443" value="bank" style="connectable=0;recursiveResize=0;align=center;fontStyle=1;html=1;fontSize=10;" vertex="1" parent="W5Yc8Tz47XCsxt4rS728-440">
          <mxGeometry x="280" width="93" height="30" as="geometry">
            <mxRectangle width="93" height="30" as="alternateBounds" />
          </mxGeometry>
        </mxCell>
        <mxCell id="W5Yc8Tz47XCsxt4rS728-444" value="email_address" style="connectable=0;recursiveResize=0;align=center;fontStyle=1;html=1;fontSize=10;" vertex="1" parent="W5Yc8Tz47XCsxt4rS728-440">
          <mxGeometry x="373" width="93" height="30" as="geometry">
            <mxRectangle width="93" height="30" as="alternateBounds" />
          </mxGeometry>
        </mxCell>
        <mxCell id="W5Yc8Tz47XCsxt4rS728-445" value="balance" style="connectable=0;recursiveResize=0;align=center;fontStyle=1;html=1;fontSize=10;" vertex="1" parent="W5Yc8Tz47XCsxt4rS728-440">
          <mxGeometry x="466" width="93" height="30" as="geometry">
            <mxRectangle width="93" height="30" as="alternateBounds" />
          </mxGeometry>
        </mxCell>
        <mxCell id="W5Yc8Tz47XCsxt4rS728-446" value="" style="shape=tableRow;horizontal=0;startSize=0;swimlaneHead=0;swimlaneBody=0;top=0;left=0;bottom=0;right=0;dropTarget=0;collapsible=0;recursiveResize=0;expand=0;fontStyle=0;" vertex="1" parent="W5Yc8Tz47XCsxt4rS728-439">
          <mxGeometry y="30" width="559" height="32" as="geometry" />
        </mxCell>
        <mxCell id="W5Yc8Tz47XCsxt4rS728-447" value="Value 1" style="connectable=0;recursiveResize=0;align=center;whiteSpace=wrap;html=1;fontSize=10;" vertex="1" parent="W5Yc8Tz47XCsxt4rS728-446">
          <mxGeometry width="93" height="32" as="geometry">
            <mxRectangle width="93" height="32" as="alternateBounds" />
          </mxGeometry>
        </mxCell>
        <mxCell id="W5Yc8Tz47XCsxt4rS728-477" style="connectable=0;recursiveResize=0;align=center;whiteSpace=wrap;html=1;fontSize=10;" vertex="1" parent="W5Yc8Tz47XCsxt4rS728-446">
          <mxGeometry x="93" width="93" height="32" as="geometry">
            <mxRectangle width="93" height="32" as="alternateBounds" />
          </mxGeometry>
        </mxCell>
        <mxCell id="W5Yc8Tz47XCsxt4rS728-448" value="Value 2" style="connectable=0;recursiveResize=0;align=center;whiteSpace=wrap;html=1;fontSize=10;" vertex="1" parent="W5Yc8Tz47XCsxt4rS728-446">
          <mxGeometry x="186" width="94" height="32" as="geometry">
            <mxRectangle width="94" height="32" as="alternateBounds" />
          </mxGeometry>
        </mxCell>
        <mxCell id="W5Yc8Tz47XCsxt4rS728-449" value="Value 3" style="connectable=0;recursiveResize=0;align=center;whiteSpace=wrap;html=1;fontSize=10;" vertex="1" parent="W5Yc8Tz47XCsxt4rS728-446">
          <mxGeometry x="280" width="93" height="32" as="geometry">
            <mxRectangle width="93" height="32" as="alternateBounds" />
          </mxGeometry>
        </mxCell>
        <mxCell id="W5Yc8Tz47XCsxt4rS728-450" style="connectable=0;recursiveResize=0;align=center;whiteSpace=wrap;html=1;fontSize=10;" vertex="1" parent="W5Yc8Tz47XCsxt4rS728-446">
          <mxGeometry x="373" width="93" height="32" as="geometry">
            <mxRectangle width="93" height="32" as="alternateBounds" />
          </mxGeometry>
        </mxCell>
        <mxCell id="W5Yc8Tz47XCsxt4rS728-451" style="connectable=0;recursiveResize=0;align=center;whiteSpace=wrap;html=1;fontSize=10;" vertex="1" parent="W5Yc8Tz47XCsxt4rS728-446">
          <mxGeometry x="466" width="93" height="32" as="geometry">
            <mxRectangle width="93" height="32" as="alternateBounds" />
          </mxGeometry>
        </mxCell>
        <mxCell id="W5Yc8Tz47XCsxt4rS728-452" value="" style="shape=tableRow;horizontal=0;startSize=0;swimlaneHead=0;swimlaneBody=0;top=0;left=0;bottom=0;right=0;dropTarget=0;collapsible=0;recursiveResize=0;expand=0;fontStyle=1;" vertex="1" parent="W5Yc8Tz47XCsxt4rS728-439">
          <mxGeometry y="62" width="559" height="31" as="geometry" />
        </mxCell>
        <mxCell id="W5Yc8Tz47XCsxt4rS728-453" value="Value 4" style="connectable=0;recursiveResize=0;whiteSpace=wrap;html=1;fontSize=10;" vertex="1" parent="W5Yc8Tz47XCsxt4rS728-452">
          <mxGeometry width="93" height="31" as="geometry">
            <mxRectangle width="93" height="31" as="alternateBounds" />
          </mxGeometry>
        </mxCell>
        <mxCell id="W5Yc8Tz47XCsxt4rS728-478" style="connectable=0;recursiveResize=0;whiteSpace=wrap;html=1;fontSize=10;" vertex="1" parent="W5Yc8Tz47XCsxt4rS728-452">
          <mxGeometry x="93" width="93" height="31" as="geometry">
            <mxRectangle width="93" height="31" as="alternateBounds" />
          </mxGeometry>
        </mxCell>
        <mxCell id="W5Yc8Tz47XCsxt4rS728-454" value="Value 5" style="connectable=0;recursiveResize=0;whiteSpace=wrap;html=1;fontSize=10;" vertex="1" parent="W5Yc8Tz47XCsxt4rS728-452">
          <mxGeometry x="186" width="94" height="31" as="geometry">
            <mxRectangle width="94" height="31" as="alternateBounds" />
          </mxGeometry>
        </mxCell>
        <mxCell id="W5Yc8Tz47XCsxt4rS728-455" value="Value 6" style="connectable=0;recursiveResize=0;whiteSpace=wrap;html=1;fontSize=10;" vertex="1" parent="W5Yc8Tz47XCsxt4rS728-452">
          <mxGeometry x="280" width="93" height="31" as="geometry">
            <mxRectangle width="93" height="31" as="alternateBounds" />
          </mxGeometry>
        </mxCell>
        <mxCell id="W5Yc8Tz47XCsxt4rS728-456" style="connectable=0;recursiveResize=0;whiteSpace=wrap;html=1;fontSize=10;" vertex="1" parent="W5Yc8Tz47XCsxt4rS728-452">
          <mxGeometry x="373" width="93" height="31" as="geometry">
            <mxRectangle width="93" height="31" as="alternateBounds" />
          </mxGeometry>
        </mxCell>
        <mxCell id="W5Yc8Tz47XCsxt4rS728-457" style="connectable=0;recursiveResize=0;whiteSpace=wrap;html=1;fontSize=10;" vertex="1" parent="W5Yc8Tz47XCsxt4rS728-452">
          <mxGeometry x="466" width="93" height="31" as="geometry">
            <mxRectangle width="93" height="31" as="alternateBounds" />
          </mxGeometry>
        </mxCell>
        <mxCell id="W5Yc8Tz47XCsxt4rS728-458" value="" style="shape=tableRow;horizontal=0;startSize=0;swimlaneHead=0;swimlaneBody=0;top=0;left=0;bottom=0;right=0;dropTarget=0;collapsible=0;recursiveResize=0;expand=0;fontStyle=0;" vertex="1" parent="W5Yc8Tz47XCsxt4rS728-439">
          <mxGeometry y="93" width="559" height="33" as="geometry" />
        </mxCell>
        <mxCell id="W5Yc8Tz47XCsxt4rS728-459" value="Value 7" style="connectable=0;recursiveResize=0;fontStyle=0;align=center;whiteSpace=wrap;html=1;fontSize=10;" vertex="1" parent="W5Yc8Tz47XCsxt4rS728-458">
          <mxGeometry width="93" height="33" as="geometry">
            <mxRectangle width="93" height="33" as="alternateBounds" />
          </mxGeometry>
        </mxCell>
        <mxCell id="W5Yc8Tz47XCsxt4rS728-479" style="connectable=0;recursiveResize=0;fontStyle=0;align=center;whiteSpace=wrap;html=1;fontSize=10;" vertex="1" parent="W5Yc8Tz47XCsxt4rS728-458">
          <mxGeometry x="93" width="93" height="33" as="geometry">
            <mxRectangle width="93" height="33" as="alternateBounds" />
          </mxGeometry>
        </mxCell>
        <mxCell id="W5Yc8Tz47XCsxt4rS728-460" value="Value 8" style="connectable=0;recursiveResize=0;fontStyle=0;align=center;whiteSpace=wrap;html=1;fontSize=10;" vertex="1" parent="W5Yc8Tz47XCsxt4rS728-458">
          <mxGeometry x="186" width="94" height="33" as="geometry">
            <mxRectangle width="94" height="33" as="alternateBounds" />
          </mxGeometry>
        </mxCell>
        <mxCell id="W5Yc8Tz47XCsxt4rS728-461" value="Value 9" style="connectable=0;recursiveResize=0;fontStyle=0;align=center;whiteSpace=wrap;html=1;fontSize=10;" vertex="1" parent="W5Yc8Tz47XCsxt4rS728-458">
          <mxGeometry x="280" width="93" height="33" as="geometry">
            <mxRectangle width="93" height="33" as="alternateBounds" />
          </mxGeometry>
        </mxCell>
        <mxCell id="W5Yc8Tz47XCsxt4rS728-462" style="connectable=0;recursiveResize=0;fontStyle=0;align=center;whiteSpace=wrap;html=1;fontSize=10;" vertex="1" parent="W5Yc8Tz47XCsxt4rS728-458">
          <mxGeometry x="373" width="93" height="33" as="geometry">
            <mxRectangle width="93" height="33" as="alternateBounds" />
          </mxGeometry>
        </mxCell>
        <mxCell id="W5Yc8Tz47XCsxt4rS728-463" style="connectable=0;recursiveResize=0;fontStyle=0;align=center;whiteSpace=wrap;html=1;fontSize=10;" vertex="1" parent="W5Yc8Tz47XCsxt4rS728-458">
          <mxGeometry x="466" width="93" height="33" as="geometry">
            <mxRectangle width="93" height="33" as="alternateBounds" />
          </mxGeometry>
        </mxCell>
        <mxCell id="W5Yc8Tz47XCsxt4rS728-464" value="" style="group" vertex="1" connectable="0" parent="1">
          <mxGeometry x="216.5" y="2220" width="10" as="geometry" />
        </mxCell>
        <mxCell id="W5Yc8Tz47XCsxt4rS728-465" value="" style="group" vertex="1" connectable="0" parent="W5Yc8Tz47XCsxt4rS728-464">
          <mxGeometry width="10" as="geometry" />
        </mxCell>
        <mxCell id="W5Yc8Tz47XCsxt4rS728-466" value="" style="edgeStyle=elbowEdgeStyle;elbow=vertical;endArrow=classic;html=1;curved=0;rounded=0;endSize=8;startSize=8;exitX=0.032;exitY=0.025;exitDx=0;exitDy=0;exitPerimeter=0;" edge="1" parent="W5Yc8Tz47XCsxt4rS728-465" source="W5Yc8Tz47XCsxt4rS728-440">
          <mxGeometry width="50" height="50" relative="1" as="geometry">
            <mxPoint x="-60" y="70" as="sourcePoint" />
            <mxPoint x="10" y="-60" as="targetPoint" />
            <Array as="points">
              <mxPoint />
            </Array>
          </mxGeometry>
        </mxCell>
        <mxCell id="W5Yc8Tz47XCsxt4rS728-467" value="" style="edgeStyle=segmentEdgeStyle;endArrow=classic;html=1;curved=0;rounded=0;endSize=8;startSize=8;" edge="1" parent="W5Yc8Tz47XCsxt4rS728-465">
          <mxGeometry width="50" height="50" relative="1" as="geometry">
            <mxPoint x="10" as="sourcePoint" />
            <mxPoint x="90" y="-60" as="targetPoint" />
          </mxGeometry>
        </mxCell>
        <mxCell id="W5Yc8Tz47XCsxt4rS728-469" value="" style="edgeStyle=elbowEdgeStyle;elbow=vertical;endArrow=classic;html=1;curved=0;rounded=0;endSize=8;startSize=8;entryX=0.234;entryY=1.008;entryDx=0;entryDy=0;entryPerimeter=0;exitX=0.071;exitY=-0.141;exitDx=0;exitDy=0;exitPerimeter=0;" edge="1" parent="1" source="W5Yc8Tz47XCsxt4rS728-305" target="W5Yc8Tz47XCsxt4rS728-439">
          <mxGeometry width="50" height="50" relative="1" as="geometry">
            <mxPoint x="530" y="2420" as="sourcePoint" />
            <mxPoint x="580" y="2370" as="targetPoint" />
          </mxGeometry>
        </mxCell>
        <mxCell id="W5Yc8Tz47XCsxt4rS728-473" value="NIK**" style="ellipse;whiteSpace=wrap;html=1;align=center;" vertex="1" parent="1">
          <mxGeometry x="650" y="630" width="70" height="40" as="geometry" />
        </mxCell>
        <mxCell id="W5Yc8Tz47XCsxt4rS728-475" value="" style="endArrow=none;html=1;rounded=0;entryX=0.598;entryY=1.082;entryDx=0;entryDy=0;exitX=0.235;exitY=0.05;exitDx=0;exitDy=0;exitPerimeter=0;entryPerimeter=0;" edge="1" parent="1" source="W5Yc8Tz47XCsxt4rS728-473" target="KtNkentMnjNg2-EnF80v-227">
          <mxGeometry relative="1" as="geometry">
            <mxPoint x="662.25" y="631" as="sourcePoint" />
            <mxPoint x="678.25" y="570" as="targetPoint" />
          </mxGeometry>
        </mxCell>
        <mxCell id="W5Yc8Tz47XCsxt4rS728-484" value="Assets" style="childLayout=tableLayout;recursiveResize=0;shadow=1;fontSize=7;" vertex="1" parent="1">
          <mxGeometry x="100" y="2710" width="651" height="126" as="geometry" />
        </mxCell>
        <mxCell id="W5Yc8Tz47XCsxt4rS728-485" style="shape=tableRow;horizontal=0;startSize=0;swimlaneHead=0;swimlaneBody=0;top=0;left=0;bottom=0;right=0;dropTarget=0;collapsible=0;recursiveResize=0;expand=0;fontStyle=0;" vertex="1" parent="W5Yc8Tz47XCsxt4rS728-484">
          <mxGeometry width="651" height="30" as="geometry" />
        </mxCell>
        <mxCell id="W5Yc8Tz47XCsxt4rS728-486" value="NIK" style="connectable=0;recursiveResize=0;align=center;fontStyle=1;html=1;fontSize=10;" vertex="1" parent="W5Yc8Tz47XCsxt4rS728-485">
          <mxGeometry width="93" height="30" as="geometry">
            <mxRectangle width="93" height="30" as="alternateBounds" />
          </mxGeometry>
        </mxCell>
        <mxCell id="W5Yc8Tz47XCsxt4rS728-487" value="name" style="connectable=0;recursiveResize=0;align=center;fontStyle=1;html=1;fontSize=10;" vertex="1" parent="W5Yc8Tz47XCsxt4rS728-485">
          <mxGeometry x="93" width="93" height="30" as="geometry">
            <mxRectangle width="93" height="30" as="alternateBounds" />
          </mxGeometry>
        </mxCell>
        <mxCell id="W5Yc8Tz47XCsxt4rS728-488" value="address" style="connectable=0;recursiveResize=0;align=center;fontStyle=1;html=1;fontSize=10;" vertex="1" parent="W5Yc8Tz47XCsxt4rS728-485">
          <mxGeometry x="186" width="93" height="30" as="geometry">
            <mxRectangle width="93" height="30" as="alternateBounds" />
          </mxGeometry>
        </mxCell>
        <mxCell id="W5Yc8Tz47XCsxt4rS728-489" value="email_address" style="connectable=0;recursiveResize=0;align=center;fontStyle=1;html=1;fontSize=10;" vertex="1" parent="W5Yc8Tz47XCsxt4rS728-485">
          <mxGeometry x="279" width="93" height="30" as="geometry">
            <mxRectangle width="93" height="30" as="alternateBounds" />
          </mxGeometry>
        </mxCell>
        <mxCell id="W5Yc8Tz47XCsxt4rS728-490" value="phone_number" style="connectable=0;recursiveResize=0;align=center;fontStyle=1;html=1;fontSize=10;" vertex="1" parent="W5Yc8Tz47XCsxt4rS728-485">
          <mxGeometry x="372" width="93" height="30" as="geometry">
            <mxRectangle width="93" height="30" as="alternateBounds" />
          </mxGeometry>
        </mxCell>
        <mxCell id="W5Yc8Tz47XCsxt4rS728-491" value="date_of_birth" style="connectable=0;recursiveResize=0;align=center;fontStyle=1;html=1;fontSize=10;" vertex="1" parent="W5Yc8Tz47XCsxt4rS728-485">
          <mxGeometry x="465" width="93" height="30" as="geometry">
            <mxRectangle width="93" height="30" as="alternateBounds" />
          </mxGeometry>
        </mxCell>
        <mxCell id="W5Yc8Tz47XCsxt4rS728-492" value="age" style="connectable=0;recursiveResize=0;align=center;fontStyle=1;html=1;fontSize=10;" vertex="1" parent="W5Yc8Tz47XCsxt4rS728-485">
          <mxGeometry x="558" width="93" height="30" as="geometry">
            <mxRectangle width="93" height="30" as="alternateBounds" />
          </mxGeometry>
        </mxCell>
        <mxCell id="W5Yc8Tz47XCsxt4rS728-493" value="" style="shape=tableRow;horizontal=0;startSize=0;swimlaneHead=0;swimlaneBody=0;top=0;left=0;bottom=0;right=0;dropTarget=0;collapsible=0;recursiveResize=0;expand=0;fontStyle=0;" vertex="1" parent="W5Yc8Tz47XCsxt4rS728-484">
          <mxGeometry y="30" width="651" height="32" as="geometry" />
        </mxCell>
        <mxCell id="W5Yc8Tz47XCsxt4rS728-494" value="Value 1" style="connectable=0;recursiveResize=0;align=center;whiteSpace=wrap;html=1;fontSize=10;" vertex="1" parent="W5Yc8Tz47XCsxt4rS728-493">
          <mxGeometry width="93" height="32" as="geometry">
            <mxRectangle width="93" height="32" as="alternateBounds" />
          </mxGeometry>
        </mxCell>
        <mxCell id="W5Yc8Tz47XCsxt4rS728-495" value="Value 3" style="connectable=0;recursiveResize=0;align=center;whiteSpace=wrap;html=1;fontSize=10;" vertex="1" parent="W5Yc8Tz47XCsxt4rS728-493">
          <mxGeometry x="93" width="93" height="32" as="geometry">
            <mxRectangle width="93" height="32" as="alternateBounds" />
          </mxGeometry>
        </mxCell>
        <mxCell id="W5Yc8Tz47XCsxt4rS728-496" style="connectable=0;recursiveResize=0;align=center;whiteSpace=wrap;html=1;fontSize=10;" vertex="1" parent="W5Yc8Tz47XCsxt4rS728-493">
          <mxGeometry x="186" width="93" height="32" as="geometry">
            <mxRectangle width="93" height="32" as="alternateBounds" />
          </mxGeometry>
        </mxCell>
        <mxCell id="W5Yc8Tz47XCsxt4rS728-497" style="connectable=0;recursiveResize=0;align=center;whiteSpace=wrap;html=1;fontSize=10;" vertex="1" parent="W5Yc8Tz47XCsxt4rS728-493">
          <mxGeometry x="279" width="93" height="32" as="geometry">
            <mxRectangle width="93" height="32" as="alternateBounds" />
          </mxGeometry>
        </mxCell>
        <mxCell id="W5Yc8Tz47XCsxt4rS728-498" style="connectable=0;recursiveResize=0;align=center;whiteSpace=wrap;html=1;fontSize=10;" vertex="1" parent="W5Yc8Tz47XCsxt4rS728-493">
          <mxGeometry x="372" width="93" height="32" as="geometry">
            <mxRectangle width="93" height="32" as="alternateBounds" />
          </mxGeometry>
        </mxCell>
        <mxCell id="W5Yc8Tz47XCsxt4rS728-499" style="connectable=0;recursiveResize=0;align=center;whiteSpace=wrap;html=1;fontSize=10;" vertex="1" parent="W5Yc8Tz47XCsxt4rS728-493">
          <mxGeometry x="465" width="93" height="32" as="geometry">
            <mxRectangle width="93" height="32" as="alternateBounds" />
          </mxGeometry>
        </mxCell>
        <mxCell id="W5Yc8Tz47XCsxt4rS728-500" style="connectable=0;recursiveResize=0;align=center;whiteSpace=wrap;html=1;fontSize=10;" vertex="1" parent="W5Yc8Tz47XCsxt4rS728-493">
          <mxGeometry x="558" width="93" height="32" as="geometry">
            <mxRectangle width="93" height="32" as="alternateBounds" />
          </mxGeometry>
        </mxCell>
        <mxCell id="W5Yc8Tz47XCsxt4rS728-501" value="" style="shape=tableRow;horizontal=0;startSize=0;swimlaneHead=0;swimlaneBody=0;top=0;left=0;bottom=0;right=0;dropTarget=0;collapsible=0;recursiveResize=0;expand=0;fontStyle=1;" vertex="1" parent="W5Yc8Tz47XCsxt4rS728-484">
          <mxGeometry y="62" width="651" height="31" as="geometry" />
        </mxCell>
        <mxCell id="W5Yc8Tz47XCsxt4rS728-502" value="Value 4" style="connectable=0;recursiveResize=0;whiteSpace=wrap;html=1;fontSize=10;" vertex="1" parent="W5Yc8Tz47XCsxt4rS728-501">
          <mxGeometry width="93" height="31" as="geometry">
            <mxRectangle width="93" height="31" as="alternateBounds" />
          </mxGeometry>
        </mxCell>
        <mxCell id="W5Yc8Tz47XCsxt4rS728-503" value="Value 6" style="connectable=0;recursiveResize=0;whiteSpace=wrap;html=1;fontSize=10;" vertex="1" parent="W5Yc8Tz47XCsxt4rS728-501">
          <mxGeometry x="93" width="93" height="31" as="geometry">
            <mxRectangle width="93" height="31" as="alternateBounds" />
          </mxGeometry>
        </mxCell>
        <mxCell id="W5Yc8Tz47XCsxt4rS728-504" style="connectable=0;recursiveResize=0;whiteSpace=wrap;html=1;fontSize=10;" vertex="1" parent="W5Yc8Tz47XCsxt4rS728-501">
          <mxGeometry x="186" width="93" height="31" as="geometry">
            <mxRectangle width="93" height="31" as="alternateBounds" />
          </mxGeometry>
        </mxCell>
        <mxCell id="W5Yc8Tz47XCsxt4rS728-505" style="connectable=0;recursiveResize=0;whiteSpace=wrap;html=1;fontSize=10;" vertex="1" parent="W5Yc8Tz47XCsxt4rS728-501">
          <mxGeometry x="279" width="93" height="31" as="geometry">
            <mxRectangle width="93" height="31" as="alternateBounds" />
          </mxGeometry>
        </mxCell>
        <mxCell id="W5Yc8Tz47XCsxt4rS728-506" style="connectable=0;recursiveResize=0;whiteSpace=wrap;html=1;fontSize=10;" vertex="1" parent="W5Yc8Tz47XCsxt4rS728-501">
          <mxGeometry x="372" width="93" height="31" as="geometry">
            <mxRectangle width="93" height="31" as="alternateBounds" />
          </mxGeometry>
        </mxCell>
        <mxCell id="W5Yc8Tz47XCsxt4rS728-507" style="connectable=0;recursiveResize=0;whiteSpace=wrap;html=1;fontSize=10;" vertex="1" parent="W5Yc8Tz47XCsxt4rS728-501">
          <mxGeometry x="465" width="93" height="31" as="geometry">
            <mxRectangle width="93" height="31" as="alternateBounds" />
          </mxGeometry>
        </mxCell>
        <mxCell id="W5Yc8Tz47XCsxt4rS728-508" style="connectable=0;recursiveResize=0;whiteSpace=wrap;html=1;fontSize=10;" vertex="1" parent="W5Yc8Tz47XCsxt4rS728-501">
          <mxGeometry x="558" width="93" height="31" as="geometry">
            <mxRectangle width="93" height="31" as="alternateBounds" />
          </mxGeometry>
        </mxCell>
        <mxCell id="W5Yc8Tz47XCsxt4rS728-509" value="" style="shape=tableRow;horizontal=0;startSize=0;swimlaneHead=0;swimlaneBody=0;top=0;left=0;bottom=0;right=0;dropTarget=0;collapsible=0;recursiveResize=0;expand=0;fontStyle=0;" vertex="1" parent="W5Yc8Tz47XCsxt4rS728-484">
          <mxGeometry y="93" width="651" height="33" as="geometry" />
        </mxCell>
        <mxCell id="W5Yc8Tz47XCsxt4rS728-510" value="Value 7" style="connectable=0;recursiveResize=0;fontStyle=0;align=center;whiteSpace=wrap;html=1;fontSize=10;" vertex="1" parent="W5Yc8Tz47XCsxt4rS728-509">
          <mxGeometry width="93" height="33" as="geometry">
            <mxRectangle width="93" height="33" as="alternateBounds" />
          </mxGeometry>
        </mxCell>
        <mxCell id="W5Yc8Tz47XCsxt4rS728-511" value="Value 9" style="connectable=0;recursiveResize=0;fontStyle=0;align=center;whiteSpace=wrap;html=1;fontSize=10;" vertex="1" parent="W5Yc8Tz47XCsxt4rS728-509">
          <mxGeometry x="93" width="93" height="33" as="geometry">
            <mxRectangle width="93" height="33" as="alternateBounds" />
          </mxGeometry>
        </mxCell>
        <mxCell id="W5Yc8Tz47XCsxt4rS728-512" style="connectable=0;recursiveResize=0;fontStyle=0;align=center;whiteSpace=wrap;html=1;fontSize=10;" vertex="1" parent="W5Yc8Tz47XCsxt4rS728-509">
          <mxGeometry x="186" width="93" height="33" as="geometry">
            <mxRectangle width="93" height="33" as="alternateBounds" />
          </mxGeometry>
        </mxCell>
        <mxCell id="W5Yc8Tz47XCsxt4rS728-513" style="connectable=0;recursiveResize=0;fontStyle=0;align=center;whiteSpace=wrap;html=1;fontSize=10;" vertex="1" parent="W5Yc8Tz47XCsxt4rS728-509">
          <mxGeometry x="279" width="93" height="33" as="geometry">
            <mxRectangle width="93" height="33" as="alternateBounds" />
          </mxGeometry>
        </mxCell>
        <mxCell id="W5Yc8Tz47XCsxt4rS728-514" style="connectable=0;recursiveResize=0;fontStyle=0;align=center;whiteSpace=wrap;html=1;fontSize=10;" vertex="1" parent="W5Yc8Tz47XCsxt4rS728-509">
          <mxGeometry x="372" width="93" height="33" as="geometry">
            <mxRectangle width="93" height="33" as="alternateBounds" />
          </mxGeometry>
        </mxCell>
        <mxCell id="W5Yc8Tz47XCsxt4rS728-515" style="connectable=0;recursiveResize=0;fontStyle=0;align=center;whiteSpace=wrap;html=1;fontSize=10;" vertex="1" parent="W5Yc8Tz47XCsxt4rS728-509">
          <mxGeometry x="465" width="93" height="33" as="geometry">
            <mxRectangle width="93" height="33" as="alternateBounds" />
          </mxGeometry>
        </mxCell>
        <mxCell id="W5Yc8Tz47XCsxt4rS728-516" style="connectable=0;recursiveResize=0;fontStyle=0;align=center;whiteSpace=wrap;html=1;fontSize=10;" vertex="1" parent="W5Yc8Tz47XCsxt4rS728-509">
          <mxGeometry x="558" width="93" height="33" as="geometry">
            <mxRectangle width="93" height="33" as="alternateBounds" />
          </mxGeometry>
        </mxCell>
        <mxCell id="W5Yc8Tz47XCsxt4rS728-517" value="Admin" style="text;strokeColor=none;fillColor=none;html=1;fontSize=24;fontStyle=1;verticalAlign=middle;align=center;" vertex="1" parent="1">
          <mxGeometry x="307" y="2660" width="100" height="40" as="geometry" />
        </mxCell>
      </root>
    </mxGraphModel>
  </diagram>
</mxfile>
